<svg width="18" height="14" viewBox="0 0 18 14" fill="none" xmlns="http://www.w3.org/2000/svg">
<path d="M5.63618 11.2724C8.74896 11.2724 11.2724 8.74896 11.2724 5.63619C11.2724 2.52341 8.74896 0 5.63618 0C2.5234 0 0 2.52341 0 5.63619C0 8.74896 2.5234 11.2724 5.63618 11.2724Z" fill="#57B873"/>
<path d="M6.32763 6.0166L6.32201 6.02539C5.95888 6.59298 6.12463 7.34747 6.69222 7.7106L15.3707 13.2629C15.9383 13.626 16.6928 13.4602 17.0559 12.8926L17.0615 12.8839C17.4247 12.3163 17.2589 11.5618 16.6913 11.1986L8.01284 5.64639C7.44525 5.28326 6.69076 5.44901 6.32763 6.0166Z" fill="#57B873"/>
<path d="M1.76227 4.81239C1.55818 5.42883 1.52757 6.08953 1.67379 6.7222C1.82 7.35487 2.1374 7.93514 2.59127 8.39953" fill="white"/>
</svg>
