<svg width="28" height="28" viewBox="0 0 28 28" fill="none" xmlns="http://www.w3.org/2000/svg">
<path fill-rule="evenodd" clip-rule="evenodd" d="M15.7589 4.0267C14.077 3.65048 12.3158 3.89842 10.8032 4.72433C9.29054 5.55024 8.12969 6.8978 7.53685 8.51603C6.944 10.1343 6.95958 11.9129 7.58067 13.5205C8.20175 15.1281 9.38601 16.4551 10.9129 17.2544C12.4397 18.0536 14.205 18.2707 15.88 17.8651C16.378 17.7445 16.8794 18.0504 17 18.5483C17.1205 19.0463 16.8146 19.5477 16.3167 19.6683C14.2043 20.1798 11.978 19.9061 10.0524 18.8981C8.12681 17.8901 6.63329 16.2165 5.85 14.1891C5.06672 12.1617 5.04708 9.91862 5.79474 7.8778C6.54241 5.83698 8.0064 4.13751 9.91402 3.09592C11.8216 2.05434 14.0428 1.74165 16.1639 2.21612C18.2849 2.69059 20.1612 3.91987 21.4432 5.67497C22.7252 7.43007 23.3256 9.59135 23.1324 11.7562C22.9393 13.9211 21.9658 15.942 20.3934 17.4424C20.0227 17.7961 19.4355 17.7823 19.0818 17.4117C18.7281 17.041 18.7419 16.4538 19.1126 16.1001C20.3594 14.9104 21.1313 13.3079 21.2844 11.5913C21.4376 9.87476 20.9615 8.161 19.945 6.76933C18.9284 5.37766 17.4407 4.40293 15.7589 4.0267Z" fill="#0076B0"/>
<path d="M14.1982 16.4405C17.232 16.4405 19.6913 13.9812 19.6913 10.9474C19.6913 7.91367 17.232 5.45428 14.1982 5.45428C11.1644 5.45428 8.70505 7.91367 8.70505 10.9474C8.70505 13.9812 11.1644 16.4405 14.1982 16.4405Z" fill="#006FB1"/>
<path fill-rule="evenodd" clip-rule="evenodd" d="M14.1982 5.73454C11.3192 5.73454 8.98533 8.06844 8.98533 10.9474C8.98533 13.8264 11.3192 16.1603 14.1982 16.1603C17.0772 16.1603 19.4111 13.8264 19.4111 10.9474C19.4111 8.06844 17.0772 5.73454 14.1982 5.73454ZM8.4248 10.9474C8.4248 7.75888 11.0096 5.17401 14.1982 5.17401C17.3868 5.17401 19.9716 7.75888 19.9716 10.9474C19.9716 14.136 17.3868 16.7208 14.1982 16.7208C11.0096 16.7208 8.4248 14.136 8.4248 10.9474Z" fill="#0076B0"/>
<path fill-rule="evenodd" clip-rule="evenodd" d="M18.6593 19.0529C19.399 18.6253 20.3453 18.8783 20.7729 19.6181L23.2224 23.8556C23.65 24.5953 23.3969 25.5416 22.6572 25.9692C21.9175 26.3968 20.9712 26.1437 20.5436 25.404L18.0941 21.1665C17.6665 20.4268 17.9196 19.4805 18.6593 19.0529Z" fill="#0076B0"/>
</svg>
