<svg width="28" height="28" viewBox="0 0 28 28" fill="none" xmlns="http://www.w3.org/2000/svg">
<path d="M21.5676 26.6748C24.8813 26.6748 27.5676 23.9885 27.5676 20.6748C27.5676 17.3611 24.8813 14.6748 21.5676 14.6748C18.2539 14.6748 15.5676 17.3611 15.5676 20.6748C15.5676 23.9885 18.2539 26.6748 21.5676 26.6748Z" fill="#FFE06F"/>
<path d="M16.3271 15.232V15.7294C16.3268 15.7383 16.33 15.747 16.3359 15.7538C16.3419 15.7605 16.3501 15.7647 16.3591 15.7655C16.7796 15.8228 17.2059 15.8228 17.6265 15.7655C17.6352 15.7645 17.6433 15.7602 17.6491 15.7535C17.6548 15.7468 17.6579 15.7382 17.6576 15.7294V15.232C17.6575 15.2269 17.6564 15.222 17.6543 15.2174C17.6521 15.2128 17.6491 15.2087 17.6453 15.2054C17.6414 15.202 17.637 15.1995 17.6322 15.198C17.6273 15.1965 17.6222 15.1961 17.6172 15.1967C17.2025 15.2522 16.7822 15.2522 16.3675 15.1967C16.3624 15.1961 16.3574 15.1965 16.3525 15.198C16.3477 15.1995 16.3432 15.202 16.3394 15.2054C16.3356 15.2087 16.3326 15.2128 16.3304 15.2174C16.3283 15.222 16.3272 15.2269 16.3271 15.232Z" fill="#00893D"/>
<path d="M16.3271 18.6276V19.125C16.327 19.134 16.3302 19.1427 16.3361 19.1495C16.342 19.1564 16.3501 19.1608 16.3591 19.162C16.7797 19.2184 17.2059 19.2184 17.6265 19.162C17.6353 19.1606 17.6432 19.1561 17.6489 19.1493C17.6547 19.1425 17.6577 19.1339 17.6576 19.125V18.6276C17.6575 18.6226 17.6564 18.6176 17.6543 18.613C17.6521 18.6084 17.6491 18.6043 17.6453 18.601C17.6415 18.5977 17.637 18.5952 17.6322 18.5937C17.6273 18.5922 17.6223 18.5917 17.6172 18.5923C17.2025 18.6478 16.7822 18.6478 16.3675 18.5923C16.3625 18.5917 16.3574 18.5922 16.3525 18.5937C16.3477 18.5952 16.3432 18.5977 16.3394 18.601C16.3356 18.6043 16.3326 18.6084 16.3304 18.613C16.3283 18.6176 16.3272 18.6226 16.3271 18.6276Z" fill="#00893D"/>
<path d="M16.3666 15.9558C16.3617 15.9553 16.3567 15.9559 16.352 15.9574C16.3472 15.959 16.3429 15.9615 16.3392 15.9648C16.3354 15.9681 16.3325 15.9722 16.3304 15.9767C16.3283 15.9812 16.3272 15.9861 16.3271 15.9911V16.9261C16.3272 16.9351 16.3306 16.9437 16.3367 16.9503C16.3427 16.957 16.351 16.9612 16.3599 16.9623C16.7794 17.0084 17.2028 17.0084 17.6223 16.9623C17.6312 16.9612 17.6395 16.957 17.6455 16.9503C17.6515 16.9437 17.655 16.9351 17.6551 16.9261V15.9894C17.655 15.9844 17.6539 15.9795 17.6518 15.975C17.6497 15.9705 17.6467 15.9664 17.643 15.9631C17.6393 15.9598 17.635 15.9573 17.6302 15.9557C17.6255 15.9542 17.6205 15.9536 17.6155 15.9541C17.1996 15.9995 16.78 15.9995 16.3641 15.9541" fill="#00893D"/>
<path d="M7.50395 15.2321V15.7294C7.50436 15.7389 7.50831 15.7478 7.51501 15.7545C7.52171 15.7612 7.53067 15.7652 7.54014 15.7656C8.02517 15.8229 8.51525 15.8229 9.00028 15.7656C9.00975 15.7652 9.01871 15.7612 9.02541 15.7545C9.03211 15.7478 9.03606 15.7389 9.03647 15.7294V15.2321C9.03597 15.2266 9.03435 15.2213 9.0317 15.2165C9.02905 15.2117 9.02544 15.2075 9.02109 15.2042C9.01673 15.2009 9.01174 15.1985 9.00642 15.1972C9.0011 15.1959 8.99557 15.1958 8.99018 15.1967C8.51181 15.2523 8.02861 15.2523 7.55024 15.1967C7.54485 15.1958 7.53932 15.1959 7.534 15.1972C7.52868 15.1985 7.52369 15.2009 7.51934 15.2042C7.51499 15.2075 7.51137 15.2117 7.50872 15.2165C7.50608 15.2213 7.50445 15.2266 7.50395 15.2321Z" fill="#00893D"/>
<path d="M7.55192 15.9558C7.54659 15.9549 7.54115 15.9552 7.53593 15.9566C7.53071 15.9579 7.52582 15.9603 7.52156 15.9636C7.51731 15.9669 7.51377 15.9711 7.51118 15.9758C7.50858 15.9805 7.50698 15.9857 7.50647 15.9911V16.9261C7.50708 16.9356 7.51121 16.9446 7.51805 16.9513C7.52488 16.9579 7.53395 16.9619 7.5435 16.9623C8.02855 17.0085 8.51691 17.0085 9.00196 16.9623C9.01151 16.9619 9.02058 16.9579 9.02741 16.9513C9.03425 16.9446 9.03837 16.9356 9.03899 16.9261V15.9894C9.03848 15.9841 9.03688 15.9789 9.03428 15.9741C9.03169 15.9694 9.02815 15.9653 9.0239 15.9619C9.01964 15.9586 9.01475 15.9562 9.00953 15.9549C9.00431 15.9535 8.99887 15.9533 8.99354 15.9541C8.51408 15.9995 8.03138 15.9995 7.55192 15.9541" fill="#00893D"/>
<path d="M16.3911 19.3556C16.3831 19.3546 16.375 19.3554 16.3673 19.3578C16.3596 19.3601 16.3525 19.3641 16.3465 19.3695C16.3404 19.3748 16.3356 19.3813 16.3322 19.3886C16.3289 19.3959 16.3272 19.4039 16.3271 19.4119V20.8173C16.327 20.8313 16.3319 20.8448 16.3411 20.8553C16.3502 20.8659 16.3629 20.8727 16.3767 20.8745C16.7854 20.9284 17.1993 20.9284 17.608 20.8745C17.6218 20.8727 17.6345 20.8659 17.6436 20.8553C17.6528 20.8448 17.6578 20.8313 17.6576 20.8173V19.4119C17.6577 19.4039 17.656 19.3958 17.6527 19.3885C17.6494 19.3811 17.6446 19.3745 17.6385 19.3691C17.6325 19.3638 17.6253 19.3598 17.6176 19.3575C17.6098 19.3551 17.6017 19.3545 17.5937 19.3556C17.1945 19.4077 16.7902 19.4077 16.3911 19.3556Z" fill="#00893D"/>
<path d="M7.50394 18.647V19.4044C7.5028 19.4163 7.50578 19.4282 7.51236 19.4382C7.51895 19.4481 7.52875 19.4555 7.54012 19.4591C8.0229 19.5466 8.51749 19.5466 9.00027 19.4591C9.01173 19.4557 9.02163 19.4483 9.02824 19.4383C9.03484 19.4283 9.03775 19.4163 9.03645 19.4044V18.647C9.03645 18.6134 9.01457 18.5881 8.99017 18.5932C8.51387 18.6773 8.02652 18.6773 7.55022 18.5932C7.52582 18.5881 7.50394 18.6134 7.50394 18.647Z" fill="#00893D"/>
<path d="M7.57968 19.7553C7.54097 19.7486 7.50646 19.7881 7.50646 19.8395V21.9812C7.5055 21.9996 7.51058 22.0177 7.52091 22.0329C7.53125 22.0481 7.54627 22.0595 7.56369 22.0654C8.03285 22.147 8.51259 22.147 8.98175 22.0654C8.99917 22.0595 9.0142 22.0481 9.02453 22.0329C9.03486 22.0177 9.03994 21.9996 9.03898 21.9812V19.8403C9.03898 19.7881 9.00447 19.7486 8.96576 19.7562C8.50704 19.8344 8.0384 19.8344 7.57968 19.7562" fill="#00893D"/>
<path d="M11.8086 15.232V15.7294C11.8099 15.7396 11.8149 15.7489 11.8227 15.7556C11.8305 15.7623 11.8405 15.7658 11.8507 15.7656C12.4044 15.8228 12.9625 15.8228 13.5162 15.7656C13.5264 15.7658 13.5363 15.7622 13.5439 15.7555C13.5516 15.7488 13.5564 15.7395 13.5574 15.7294V15.232C13.5574 15.2101 13.5322 15.1941 13.5044 15.1967C12.9585 15.2522 12.4084 15.2522 11.8625 15.1967C11.8339 15.1967 11.8086 15.2101 11.8086 15.232Z" fill="#00893D"/>
<path d="M11.8608 15.9557C11.833 15.9557 11.8086 15.97 11.8086 15.9911V16.926C11.8086 16.9445 11.8272 16.9597 11.8516 16.9622C12.4049 17.0085 12.9612 17.0085 13.5145 16.9622C13.5389 16.9622 13.5574 16.9445 13.5574 16.926V15.9894C13.5574 15.9683 13.533 15.9524 13.5053 15.954C12.9581 15.9995 12.408 15.9995 11.8608 15.954" fill="#00893D"/>
<path d="M11.8086 18.647V19.4044C11.808 19.4173 11.8122 19.4299 11.8202 19.44C11.8283 19.4501 11.8397 19.4569 11.8524 19.4591C12.4383 19.5465 13.0339 19.5465 13.6197 19.4591C13.6324 19.4569 13.6439 19.4501 13.6519 19.44C13.66 19.4299 13.6641 19.4173 13.6635 19.4044V18.647C13.664 18.6396 13.6629 18.6321 13.6603 18.6251C13.6576 18.6182 13.6534 18.6119 13.648 18.6068C13.6426 18.6016 13.6362 18.5977 13.6291 18.5954C13.622 18.593 13.6145 18.5922 13.6071 18.5931C13.0292 18.6773 12.4421 18.6773 11.8642 18.5931C11.8568 18.5922 11.8493 18.593 11.8422 18.5954C11.8351 18.5977 11.8287 18.6016 11.8233 18.6068C11.8179 18.6119 11.8137 18.6182 11.811 18.6251C11.8084 18.6321 11.8073 18.6396 11.8078 18.647" fill="#00893D"/>
<path d="M11.8743 19.7183C11.8664 19.7172 11.8583 19.7178 11.8507 19.7201C11.8431 19.7224 11.836 19.7263 11.83 19.7316C11.824 19.7369 11.8192 19.7434 11.816 19.7507C11.8127 19.758 11.8111 19.7659 11.8112 19.7738V23.3445C11.8111 23.3587 11.8163 23.3725 11.8258 23.383C11.8353 23.3936 11.8484 23.4003 11.8625 23.4017C12.4441 23.4514 13.0289 23.4514 13.6105 23.4017C13.6247 23.4005 13.638 23.3939 13.6477 23.3833C13.6574 23.3727 13.6627 23.3589 13.6626 23.3445V19.7764C13.6626 19.7684 13.6609 19.7605 13.6575 19.7532C13.6541 19.746 13.6493 19.7395 13.6432 19.7343C13.6371 19.7292 13.63 19.7253 13.6223 19.7231C13.6146 19.721 13.6066 19.7204 13.5987 19.7217C13.0264 19.7974 12.4466 19.7974 11.8743 19.7217" fill="#00893D"/>
<path d="M8.03413 23.9589C11.5545 24.5521 14.3106 24.457 17.0323 21.5882C17.0541 21.5625 17.085 21.5463 17.1185 21.5427C17.1521 21.5392 17.1856 21.5487 17.2124 21.5692C17.2391 21.5898 17.2569 21.6198 17.262 21.6531C17.2672 21.6864 17.2594 21.7204 17.2402 21.7481C16.0115 23.5995 13.2974 26.0248 7.96512 24.2416C7.92857 24.2316 7.89737 24.2077 7.87815 24.175C7.85893 24.1424 7.85321 24.1035 7.86219 24.0667C7.87118 24.0299 7.89417 23.998 7.92627 23.9779C7.95838 23.9577 7.99707 23.9509 8.03413 23.9589Z" fill="#FAC03D"/>
<path d="M3.1757 22.4146C3.16115 22.3784 3.15961 22.3383 3.17135 22.3011C3.1831 22.2639 3.20739 22.232 3.24008 22.2107C3.27278 22.1894 3.31184 22.1802 3.3506 22.1845C3.38936 22.1889 3.4254 22.2065 3.45258 22.2345C4.69644 23.8419 7.09326 25.7816 11.3634 25.6058C18.5623 25.3104 18.713 19.1747 21.1258 20.2804C23.494 21.3652 20.338 27.4344 13.7316 27.6768C8.30766 27.8746 4.90262 25.5376 3.17907 22.4146" fill="#00893D"/>
<path d="M12.7218 0C12.9735 0.665743 13.3423 1.28107 13.8108 1.8169L13.9631 1.99194L13.7594 1.96249C13.0711 1.86487 12.3724 1.86487 11.6841 1.96249L11.4804 1.99194L11.6614 1.78071C12.1039 1.26789 12.4557 0.68332 12.7016 0.0521762L12.7218 0Z" fill="#00893D"/>
<path d="M15.5461 5.16205C15.5461 5.1469 15.5461 5.13175 15.5461 5.1166C15.547 5.07075 15.5342 5.02566 15.5095 4.98702C15.4848 4.94838 15.4492 4.91792 15.4072 4.89948C15.1387 4.77364 14.9112 4.57462 14.7507 4.32528C14.5902 4.07594 14.5033 3.78639 14.5 3.48989C14.501 3.25689 14.5544 3.02709 14.6564 2.81759C14.7584 2.60809 14.9063 2.42425 15.0891 2.27975C15.0956 2.27438 15.1001 2.26688 15.1017 2.25856C15.1033 2.25025 15.1019 2.24163 15.0978 2.23423C15.0937 2.22682 15.0871 2.22108 15.0792 2.21802C15.0713 2.21496 15.0626 2.21477 15.0546 2.21747C14.2803 2.41524 13.4657 2.60963 12.6241 2.60963C11.8036 2.60963 11.0083 2.42029 10.2525 2.23262C10.2446 2.22923 10.2357 2.22886 10.2275 2.23156C10.2194 2.23427 10.2125 2.23987 10.2081 2.24731C10.2038 2.25475 10.2023 2.26353 10.204 2.27198C10.2056 2.28043 10.2103 2.28798 10.2172 2.29321C10.3957 2.43763 10.5399 2.61991 10.6393 2.82687C10.7387 3.03383 10.7908 3.2603 10.792 3.48989C10.788 3.80072 10.6927 4.10352 10.5179 4.3606C10.3432 4.61767 10.0966 4.81766 9.80902 4.93567C9.76333 4.95319 9.72388 4.98392 9.69571 5.02393C9.66753 5.06395 9.6519 5.11144 9.65081 5.16036C9.64753 5.347 9.59012 5.52867 9.48554 5.6833C9.38096 5.83792 9.23371 5.95884 9.0617 6.03136V6.04062H16.1562C15.9787 5.9707 15.8259 5.84978 15.717 5.69313C15.6081 5.53648 15.5481 5.3511 15.5444 5.16036" fill="#1CAF76"/>
<path d="M21.1535 10.7945C21.9892 10.1104 21.7317 9.06179 21.5945 8.66879C21.5888 8.65253 21.579 8.63799 21.5661 8.62654C21.5532 8.61508 21.5377 8.60709 21.5208 8.6033C21.504 8.59952 21.4865 8.60007 21.47 8.6049C21.4534 8.60973 21.4384 8.61868 21.4262 8.63092C21.0736 8.97679 20.5577 9.13585 20.0561 9.20401C19.626 9.2588 19.189 9.20249 18.7868 9.04044C18.3846 8.87839 18.0306 8.616 17.7586 8.27831L16.5004 6.73239C16.4698 6.69491 16.4313 6.66462 16.3877 6.64368C16.3441 6.62274 16.2964 6.61165 16.248 6.61121H9.14587C9.09684 6.61149 9.04847 6.62249 9.00413 6.64342C8.95979 6.66435 8.92056 6.69472 8.88918 6.73239L7.63186 8.27579C7.35969 8.61349 7.00556 8.87586 6.60323 9.0379C6.2009 9.19995 5.76377 9.25627 5.33351 9.20149C4.83277 9.13501 4.31688 8.97427 3.96342 8.62839C3.95127 8.61616 3.93622 8.6072 3.91966 8.60237C3.90311 8.59754 3.88561 8.59699 3.86878 8.60078C3.85196 8.60456 3.83638 8.61256 3.82349 8.62401C3.8106 8.63547 3.80083 8.65 3.7951 8.66626C3.65876 9.05927 3.4004 10.1078 4.23609 10.792L2.06313 14.1725C2.02442 14.2326 2.00268 14.3021 2.00023 14.3735C1.99778 14.445 2.01471 14.5158 2.04921 14.5784C2.08371 14.641 2.13451 14.6931 2.19622 14.7292C2.25794 14.7653 2.32826 14.7841 2.39976 14.7835H23.1767C23.2303 14.7841 23.283 14.7703 23.3293 14.7433C23.3756 14.7164 23.4137 14.6774 23.4396 14.6305C23.4655 14.5836 23.4783 14.5306 23.4764 14.4771C23.4746 14.4235 23.4582 14.3715 23.4292 14.3265L21.1535 10.7945Z" fill="#007431"/>
<path d="M19.8836 18.1942H5.3074C5.22377 18.194 5.14362 18.1607 5.08449 18.1016C5.02535 18.0424 4.99203 17.9623 4.99181 17.8787V17.7019C4.99203 17.6183 5.02535 17.5382 5.08449 17.479C5.14362 17.4199 5.22377 17.3866 5.3074 17.3864H19.8836C19.9671 17.3868 20.047 17.4202 20.1059 17.4793C20.1649 17.5384 20.1981 17.6184 20.1983 17.7019V17.8787C20.1981 17.9621 20.1649 18.0422 20.1059 18.1013C20.047 18.1604 19.9671 18.1938 19.8836 18.1942Z" fill="#F4A023"/>
<path d="M6.59925 17.5698C6.59925 17.5698 6.2298 16.666 5.33688 17.1053C4.44396 17.5446 4.1452 17.1482 4.1452 17.1482C4.1452 17.1482 4.87569 19.0838 6.45955 18.0613L6.59925 17.5698Z" fill="#F4A023"/>
<path fill-rule="evenodd" clip-rule="evenodd" d="M10.2517 10.7828C10.2744 10.7727 10.2963 10.7634 10.319 10.7558L10.2812 10.7718L10.2323 10.7987L10.2576 10.7861C10.2837 10.7727 10.3098 10.76 10.3367 10.7482H10.3266C10.2827 10.7682 10.24 10.7907 10.1987 10.8156L10.1894 10.8231C10.2369 10.7954 10.2858 10.7701 10.3359 10.7474C10.3586 10.7365 10.3821 10.7272 10.4057 10.7171H10.3956L10.3603 10.7323C10.351 10.739 10.303 10.7609 10.2845 10.771L10.2626 10.7828L10.2542 10.787L10.3064 10.7609L10.3333 10.7474C10.3653 10.7323 10.3973 10.7188 10.431 10.7062L10.415 10.7121L10.3948 10.7213L10.3493 10.7407C10.3902 10.7213 10.432 10.7042 10.4747 10.6893L10.5016 10.6834H10.4949C10.4562 10.6969 10.4183 10.7121 10.3813 10.7289H10.3931L10.4158 10.7205H10.4267C10.4517 10.709 10.4776 10.6997 10.5042 10.6927L10.4705 10.7053L10.4865 10.7003L10.4823 10.7045H10.4697C10.4854 10.7012 10.5009 10.6967 10.516 10.691L10.5404 10.6834L10.5639 10.675H10.569C10.5749 10.675 10.569 10.675 10.5749 10.675H10.5639L10.6043 10.6624C10.6702 10.6548 10.7366 10.6515 10.8029 10.6523C10.8186 10.6525 10.8339 10.6484 10.8473 10.6403C10.8607 10.6323 10.8716 10.6206 10.8788 10.6067C10.886 10.5928 10.8891 10.5772 10.8879 10.5616C10.8867 10.5461 10.8812 10.5311 10.8719 10.5185C10.8215 10.4567 10.7645 10.4006 10.7019 10.351C10.601 10.2669 10.542 10.2761 10.4267 10.3393C10.3495 10.3758 10.2702 10.4081 10.1894 10.436C10.2063 10.4562 10.2315 10.4933 10.261 10.5252C10.3788 10.6532 10.3796 10.6532 10.2542 10.7777" fill="white"/>
<path fill-rule="evenodd" clip-rule="evenodd" d="M11.5435 11.4812C11.3603 11.5025 11.1787 11.5359 10.9999 11.5813L10.9881 11.5696L10.9755 11.5578C10.9696 11.5519 10.9679 11.5536 10.9628 11.5485C10.9628 11.5485 10.9628 11.5485 10.9628 11.5435H10.9704L10.941 11.5224H10.9368C10.9309 11.5165 10.909 11.5073 10.8964 11.4989C10.9152 11.4747 10.9363 11.4525 10.9595 11.4324C10.9713 11.4214 10.9839 11.4113 10.9965 11.4013C11.0404 11.3685 11.0893 11.3429 11.1413 11.3255V11.3314L11.1169 11.3407L11.0866 11.3566C11.0641 11.3675 11.0425 11.3799 11.0218 11.3937V11.3987C11.0883 11.3497 11.1657 11.3174 11.2473 11.3045C11.2566 11.3045 11.2658 11.3045 11.2759 11.3045H11.2911V11.3104C11.2742 11.3104 11.2692 11.3213 11.2448 11.3272C11.1851 11.3386 11.1281 11.3608 11.0765 11.3928H11.0967C11.1076 11.3878 11.1185 11.3853 11.1295 11.3811L11.1446 11.376C11.1556 11.3718 11.1808 11.36 11.2052 11.3524C11.2296 11.3449 11.254 11.3415 11.2582 11.3474C11.2417 11.3513 11.2254 11.356 11.2094 11.3617H11.233L11.2271 11.3752H11.2094C11.2162 11.3827 11.2582 11.3693 11.2768 11.3684H11.3129C11.3306 11.3684 11.3315 11.3617 11.3466 11.3617H11.355C11.3626 11.3617 11.3601 11.3617 11.3626 11.3684L11.3466 11.3735C11.3723 11.3701 11.3981 11.3684 11.424 11.3684L11.4333 11.3634H11.4594C11.4739 11.371 11.4891 11.3772 11.5048 11.3819C11.6243 11.4223 12.0645 11.3819 12.0249 11.2826C11.9854 11.1833 11.4299 10.6876 11.4299 10.6876H11.4173L11.4131 10.6826H11.3836V10.6733H11.3693C11.3618 10.6523 11.3146 10.6733 11.3113 10.6447L11.297 10.654C11.297 10.638 11.2894 10.6329 11.2759 10.6413L11.254 10.6296L11.2683 10.6237H11.249V10.6329H11.2338C11.2338 10.6136 11.2178 10.6228 11.1783 10.627C11.1682 10.627 11.1034 10.6329 11.1034 10.6329C11.0689 10.6397 10.994 10.675 10.941 10.6935C10.9138 10.7024 10.8871 10.7128 10.861 10.7246C10.8282 10.739 10.7827 10.7415 10.7769 10.7592C10.7365 10.7592 10.7264 10.7861 10.6826 10.7987C10.6486 10.8141 10.6137 10.8276 10.5782 10.8391C10.5782 10.8391 10.5782 10.8391 10.5782 10.8441C10.4058 10.9147 10.2387 10.9976 10.0783 11.0924L10.0489 11.1042L10.0026 11.1235C9.97904 11.1328 9.97988 11.1345 9.95968 11.1429H9.95042C9.94032 11.1471 9.94369 11.1429 9.94033 11.1429L9.95968 11.1328C9.9277 11.1471 9.89656 11.1631 9.86458 11.1782L9.85532 11.1841C9.83344 11.1942 9.77117 11.2304 9.73161 11.2506C9.71696 11.2522 9.70216 11.2498 9.68869 11.2439C9.6851 11.2332 9.68229 11.2222 9.68027 11.2111C9.67778 11.2008 9.67609 11.1904 9.67523 11.1799C9.67284 11.1428 9.67683 11.1055 9.68701 11.0697L9.6828 11.0865C9.6828 11.0949 9.6828 11.1025 9.6828 11.1101C9.68111 11.1269 9.68111 11.1438 9.6828 11.1606C9.68148 11.1323 9.68403 11.104 9.69038 11.0764C9.69625 11.0478 9.70441 11.0196 9.71478 10.9923L9.72235 10.9754L9.72656 10.9687C9.72302 10.9791 9.72021 10.9898 9.71815 11.0007C9.7039 11.0406 9.69485 11.0822 9.69122 11.1244L9.69626 11.1118C9.69783 11.1038 9.6998 11.0959 9.70216 11.0882V11.0773C9.70216 11.0688 9.70805 11.0495 9.7131 11.031C9.71522 11.0185 9.72011 11.0068 9.72741 10.9965C9.72741 11.0082 9.72067 11.0192 9.71815 11.031L9.72404 11.015V11.0226V11.0352C9.73173 11.0213 9.73793 11.0066 9.74255 10.9914C9.74598 10.9844 9.74991 10.9777 9.75433 10.9712C9.76022 10.962 9.75434 10.9603 9.76359 10.9527C9.76359 10.9485 9.76359 10.9527 9.76864 10.9527C9.77369 10.9527 9.76864 10.9586 9.76864 10.962C9.77706 10.9475 9.78693 10.934 9.7981 10.9216V10.9157C9.80399 10.9098 9.81577 10.8938 9.83008 10.8795C9.8399 10.8679 9.85155 10.8579 9.86458 10.85L9.89235 10.8206L9.88562 10.8248H9.87973L9.86037 10.8559H9.85364L9.86458 10.8458L9.87889 10.8349V10.8256H9.87384L9.86206 10.834V10.829C9.86808 10.8227 9.87455 10.8168 9.88141 10.8113L9.89825 10.8004H9.90666H9.8974L9.91255 10.7878L9.95211 10.7684L10.0001 10.7516L9.97399 10.7566L9.93864 10.7684C9.94132 10.7667 9.94385 10.7647 9.94621 10.7625C9.97483 10.7524 10.0043 10.7432 10.0304 10.7356L10.0396 10.728C10.0102 10.7356 9.98072 10.744 9.95547 10.7533L9.96305 10.7474L9.93022 10.7516L9.94453 10.7457L9.96641 10.7381H9.97483C9.95715 10.7432 9.94032 10.7491 9.92265 10.7558H9.91592L9.87805 10.7634L9.83344 10.7751L9.84523 10.7684H9.8326L9.80988 10.7777L9.80062 10.7827H9.79473L9.74592 10.7995L9.75686 10.7928C9.75686 10.7928 9.73919 10.7995 9.72825 10.8071C9.55532 10.8761 9.39752 10.9781 9.26369 11.1076C8.9035 11.4442 8.98345 11.6074 9.08359 11.6874C9.13464 11.742 9.18241 11.7996 9.22666 11.8599C9.0979 11.9504 8.95597 12.0205 8.80587 12.0678C8.54583 12.1477 8.98597 12.4683 9.06592 12.4683C9.108 12.4683 9.47072 12.2765 9.95126 12.1494C9.92843 12.175 9.90427 12.1995 9.87889 12.2226L9.86879 12.2276L9.85617 12.2344L9.86963 12.2201L9.84943 12.2403H9.84354C9.86229 12.2216 9.87999 12.202 9.89656 12.1814L9.9033 12.1696C9.88269 12.1954 9.86048 12.2198 9.83681 12.2428L9.82082 12.2504L9.83513 12.2361L9.84691 12.2302C9.7908 12.2622 9.73273 12.295 9.6727 12.3286L9.65166 12.3396L9.64325 12.3438C9.65587 12.3371 9.65755 12.3295 9.67523 12.3177L9.80988 12.2394L9.79305 12.2436L9.76443 12.2554L9.75181 12.2622C9.73245 12.2714 9.66765 12.316 9.65923 12.3126L9.69795 12.2874L9.67859 12.2975V12.2866L9.69374 12.279C9.68701 12.279 9.6525 12.2983 9.6382 12.3059L9.6079 12.3219C9.59359 12.3295 9.59528 12.3328 9.58265 12.3396H9.57592C9.57003 12.3396 9.57171 12.3396 9.56835 12.3396L9.57929 12.3295L9.52122 12.369V12.3766C9.4921 12.4005 9.46146 12.4224 9.42949 12.4422L9.39582 12.4717H9.39077C9.37731 12.4717 9.36384 12.4793 9.34953 12.4818H9.35795H9.36216L9.39498 12.4742H9.40087H9.38656H9.36805H9.38236L9.3731 12.4784C9.30914 12.4784 9.30072 12.4683 9.32008 12.5525C9.33116 12.6024 9.35233 12.6495 9.38229 12.6908C9.41225 12.7322 9.45036 12.7671 9.49429 12.7932C9.50018 12.8024 9.5027 12.8108 9.49429 12.8134H9.50102L9.52542 12.8403V12.8352H9.54562L9.533 12.8142L9.56835 12.8243V12.8319L9.59948 12.8361H9.61884V12.8277L9.63483 12.8336H9.64914H9.67439H9.68785V12.8479H9.69458L9.66429 12.8605L9.69626 12.8647H9.71562L9.72488 12.8563H9.74424V12.8521C9.78968 12.8521 9.7678 12.8378 9.82839 12.8403L9.81661 12.8352C9.84943 12.8352 9.86206 12.8352 9.85112 12.831L9.88478 12.826L9.88983 12.831V12.8243H9.87047L9.87805 12.8201C9.91592 12.8201 9.90498 12.8201 9.91424 12.8041C9.91776 12.8025 9.92091 12.8002 9.92349 12.7974C9.97651 12.7974 10.0354 12.805 10.0985 12.8125L10.0876 12.8201C10.0817 12.826 10.0741 12.847 10.064 12.8588C10.0539 12.8706 10.0523 12.8723 10.0506 12.8782C10.0489 12.8841 10.0312 12.8899 10.0337 12.8984C10.0228 12.8984 10.0245 12.9127 10.0135 12.9194C10.0026 12.9261 9.99671 12.9388 9.98829 12.9396C9.97988 12.9404 9.98829 12.9446 9.98829 12.9446L9.97146 12.959L9.92265 12.9968H9.91676L9.93612 12.9876V12.9918L9.86037 13.044L9.8225 13.0625L9.84438 13.0557L9.90582 13.0263L9.89825 13.0305C9.86458 13.0473 9.83008 13.0625 9.79557 13.0768L9.78968 13.0843C9.82924 13.0692 9.86879 13.0515 9.9075 13.033L9.95968 13.0027L9.95126 13.0078L9.92602 13.0229C9.90865 13.0375 9.8894 13.0497 9.86879 13.0591L9.85196 13.0675C9.84775 13.0675 9.84775 13.0675 9.84438 13.0675L9.88646 13.0482L9.9075 13.0364L9.97988 12.9943L9.9681 13.001L9.95379 13.012L9.92013 13.0313C9.95631 13.0078 9.99166 12.9834 10.027 12.9573L10.0388 12.9489H10.0438C9.96071 13.0247 9.86857 13.09 9.76948 13.1433H9.75602C9.75359 13.1459 9.75033 13.1477 9.74676 13.1483L9.69626 13.1677H9.68953L9.54646 13.2165L9.52963 13.2215L9.58097 13.2064L9.57424 13.2106C9.52543 13.2257 9.47661 13.2409 9.42696 13.2543C9.3933 13.2628 9.36048 13.2703 9.32681 13.2762L9.37899 13.2678C9.43201 13.256 9.48419 13.2417 9.53721 13.2274L9.51701 13.2341C9.4308 13.2603 9.34233 13.2783 9.25275 13.288L9.23087 13.2922C9.33371 13.2832 9.43528 13.2632 9.53384 13.2325L9.61211 13.2089L9.59443 13.2156H9.58181C9.53102 13.2339 9.47934 13.2497 9.42696 13.2628L9.38236 13.2729H9.36468C9.40087 13.2653 9.43622 13.2569 9.47241 13.2468L9.52711 13.2316H9.53468C9.43392 13.2673 9.32947 13.2916 9.2233 13.304C9.37763 13.3407 9.53598 13.3576 9.69458 13.3545C9.76464 13.3623 9.83555 13.3548 9.90245 13.3326L9.96052 13.3208L9.94706 13.3259C9.91965 13.337 9.89154 13.3463 9.8629 13.3536L9.81829 13.3629H9.80062C9.83685 13.3577 9.8726 13.3495 9.9075 13.3385C9.92522 13.3326 9.94264 13.3259 9.95968 13.3183L9.98072 13.3099L10.011 13.3015L9.99082 13.3107L10.022 13.2947L10.0859 13.2737L10.0514 13.2922L10.075 13.2838L10.1162 13.2636L10.1347 13.2535L10.144 13.2484C10.176 13.235 10.2063 13.2198 10.2357 13.2038V13.2081L10.2138 13.2207C10.2418 13.2078 10.2683 13.192 10.2929 13.1736L10.335 13.1458C10.3456 13.1383 10.3557 13.1301 10.3653 13.1214H10.3704L10.3796 13.1155C10.388 13.1088 10.3855 13.1113 10.3897 13.1113L10.3737 13.1264C10.4007 13.1054 10.4276 13.0827 10.4537 13.0599L10.4604 13.0515C10.4835 13.0318 10.5054 13.0107 10.5261 12.9884C10.5513 12.9615 10.574 12.932 10.5824 12.9245C10.5883 12.9155 10.5936 12.9062 10.5984 12.8967C10.7901 12.9504 10.975 13.0258 11.1497 13.1214L11.0714 13.0995L11.0596 13.0953L11.0933 13.1079H11.0882C11.0537 13.0978 11.0201 13.0886 10.9856 13.081L10.9166 13.0633L10.9511 13.0751C10.9872 13.0843 11.0226 13.097 11.0579 13.1087L11.0436 13.1037C10.9852 13.0834 10.9256 13.0666 10.8652 13.0532H10.8492C10.9183 13.0682 10.9863 13.0876 11.0529 13.1113C11.0843 13.1214 11.1146 13.1323 11.1438 13.1441L11.1303 13.1382L11.0849 13.1222C11.0697 13.1222 11.0049 13.1003 10.9797 13.0936L10.9485 13.086L10.9376 13.081L11.0091 13.102L11.0462 13.1138C11.089 13.1271 11.1311 13.1425 11.1724 13.1601L11.153 13.1517L11.1253 13.1424L11.0664 13.1214C11.1321 13.1415 11.1965 13.166 11.2591 13.1946L11.2801 13.2055L11.2894 13.2097C11.2768 13.2038 11.27 13.2055 11.2498 13.1971C11.2025 13.1764 11.1542 13.1581 11.1051 13.1424L11.1194 13.1517L11.1472 13.1643L11.1606 13.1693L11.2145 13.1895C11.2296 13.1939 11.2436 13.2014 11.2557 13.2114L11.2145 13.1946L11.2338 13.2038H11.2237L11.2094 13.1963C11.2094 13.203 11.249 13.2165 11.2633 13.224L11.2927 13.2392C11.307 13.2476 11.3087 13.2442 11.3205 13.2518H11.3272C11.3331 13.2518 11.3272 13.2518 11.3272 13.2577L11.3129 13.2535C11.334 13.2628 11.355 13.272 11.3752 13.283H11.3828L11.4358 13.3082L11.4644 13.3242L11.4956 13.3419H11.5057L11.5158 13.352C11.5158 13.352 11.7363 13.3722 11.8162 13.2114C11.8221 13.1982 11.8242 13.1836 11.8221 13.1693L11.8322 13.2072L11.8448 13.224C11.8252 13.1304 11.7869 13.0416 11.732 12.9632C11.706 12.927 11.6782 12.8925 11.6479 12.8588H11.6521L11.6656 12.874C11.6799 12.8908 11.6942 12.9085 11.7076 12.9261C11.7259 12.9407 11.7418 12.958 11.7548 12.9775C11.771 12.9998 11.7859 13.0232 11.7994 13.0473C11.8069 13.0598 11.8137 13.0727 11.8196 13.086C11.8196 13.0953 11.8246 13.0953 11.8246 13.1029H11.8297C11.8157 13.0705 11.7997 13.039 11.7817 13.0086L11.7514 12.964C11.7143 12.9125 11.6741 12.8633 11.6311 12.8167H11.6353L11.6555 12.8395L11.6849 12.8681C11.7034 12.8908 11.7228 12.9135 11.7405 12.9379C11.6786 12.8842 11.6128 12.8352 11.5435 12.7915C11.5351 12.7839 11.5267 12.7755 11.5183 12.7688L11.5082 12.7595V12.7553C11.5242 12.7688 11.5343 12.7671 11.5595 12.7864C11.6168 12.8346 11.6708 12.8866 11.7211 12.9421L11.7093 12.9202C11.7009 12.9076 11.6917 12.8958 11.6824 12.8841L11.6681 12.8689C11.658 12.8571 11.6302 12.8336 11.6058 12.8117C11.5814 12.7898 11.5578 12.7696 11.5578 12.762L11.61 12.8041L11.5873 12.7822H11.6033L11.621 12.7991C11.621 12.7881 11.5747 12.7511 11.5553 12.7343L11.5183 12.7023C11.4989 12.6863 11.4947 12.6905 11.4787 12.677L11.4695 12.6703C11.4611 12.6644 11.4644 12.6703 11.4653 12.6602L11.4855 12.6686C11.456 12.6501 11.4257 12.6324 11.3946 12.6164H11.3828C11.356 12.6018 11.3278 12.59 11.2986 12.5811C11.2727 12.5733 11.2478 12.5623 11.2246 12.5483L11.1539 12.5306L11.1673 12.5365V12.5474L11.2221 12.5643L11.2288 12.5735L11.2052 12.5651L11.201 12.5727L11.1732 12.5592L11.1606 12.5685V12.5643V12.5718C11.1275 12.5515 11.091 12.5373 11.0529 12.5298C11.0058 12.5247 10.9216 12.518 10.8223 12.5096C10.8433 12.4498 10.856 12.4035 10.8627 12.38C10.8854 12.3059 10.9199 12.2117 10.9553 12.114C11.0215 12.1072 11.0882 12.1058 11.1547 12.1098H11.1825H11.1934C11.1766 12.1098 11.1707 12.1098 11.1455 12.1098C11.0857 12.1073 11.0258 12.109 10.9662 12.1149H10.9847H11.0369H11.1042C11.1223 12.1137 11.1405 12.1154 11.1581 12.1199H11.1051H11.1295L11.1211 12.125H11.1017C11.125 12.1292 11.1487 12.1314 11.1724 12.1317H11.2094C11.2288 12.1317 11.2288 12.1317 11.2448 12.1317H11.2532C11.2608 12.1317 11.2582 12.1317 11.2608 12.1359H11.2439C11.27 12.1359 11.2961 12.141 11.3222 12.1443H11.3315C11.3403 12.1463 11.3493 12.1477 11.3584 12.1485C11.3466 12.1539 11.3342 12.1576 11.3214 12.1595C11.3214 12.1595 11.3214 12.1645 11.3155 12.1637L11.2835 12.1738L11.1934 12.2016H11.1825L11.2153 12.1957L11.2111 12.1999L11.1185 12.2251L11.0554 12.2386L11.0882 12.2344L11.1892 12.2159H11.1758L11.0074 12.247L10.9957 12.2546L11.1859 12.2201L11.27 12.2016H11.2566L11.2136 12.2108C11.1821 12.2221 11.1498 12.2308 11.1169 12.2369L11.0882 12.2428C11.0847 12.244 11.0808 12.244 11.0773 12.2428L11.1446 12.2302L11.1791 12.2226L11.3012 12.1965L11.2818 12.2007L11.2566 12.2083L11.1993 12.2201L11.3853 12.1738L11.4072 12.1687H11.4156C11.4021 12.1687 11.3988 12.1772 11.3794 12.183L11.2397 12.2201H11.2557L11.2843 12.2159H11.297C11.3278 12.2052 11.3597 12.1976 11.3921 12.1931L11.3517 12.2058L11.371 12.2016L11.366 12.2091H11.3508C11.37 12.2079 11.3889 12.2042 11.4072 12.1982L11.4383 12.1915C11.4476 12.1891 11.4566 12.186 11.4653 12.1822H11.472C11.4787 12.1822 11.4762 12.1822 11.4796 12.1822L11.467 12.1881L11.5284 12.1679H11.5343H11.5402C11.6949 12.2196 11.8522 12.2631 12.0115 12.2983C12.2252 12.3505 12.3052 12.231 12.3287 12.1603C12.3422 12.1225 11.6883 11.44 11.5284 11.44M11.7135 12.996L11.7245 13.012C11.7419 13.039 11.7577 13.0671 11.7716 13.0961C11.759 13.0759 11.7447 13.054 11.7287 13.0322L11.7085 13.0019L11.7135 12.996ZM9.54141 11.9213C9.48237 11.9429 9.41829 11.9467 9.35711 11.9323C9.35783 11.9273 9.35986 11.9227 9.363 11.9188L9.35711 11.9281C9.35091 11.9244 9.34615 11.9188 9.34364 11.9121C9.34618 11.9082 9.34899 11.9046 9.35206 11.9011L9.36552 11.8893H9.37142H9.37899C9.37899 11.8936 9.37899 11.8952 9.38825 11.8893H9.39835H9.39077H9.40087H9.4076C9.4076 11.8944 9.41602 11.8893 9.43453 11.8893L9.45305 11.8835L9.4682 11.8776C9.48306 11.8687 9.49714 11.8586 9.51028 11.8473H9.52627C9.58686 11.8439 9.64745 11.8389 9.70805 11.8321H9.67859L9.63988 11.8363L9.55572 11.8431C9.6491 11.8362 9.74207 11.8247 9.83429 11.8086L9.86711 11.8027H9.87973C9.86037 11.8027 9.85364 11.8094 9.82503 11.8153C9.75433 11.8279 9.68448 11.8363 9.61379 11.8439H9.63567H9.67859H9.69795C9.7274 11.8439 9.83092 11.822 9.84018 11.8229C9.81998 11.8279 9.79978 11.8304 9.77874 11.8346H9.8082H9.7981H9.77537C9.79124 11.8342 9.80702 11.8322 9.8225 11.8288L9.68869 11.8692C9.65671 11.8793 9.6281 11.8885 9.60453 11.8952H9.61127L9.54141 11.9213ZM10.1575 11.6874L10.1373 11.6958L10.1137 11.7042L10.0943 11.7101C10.0741 11.7177 10.0253 11.737 9.99082 11.7471L9.9378 11.7631C9.91859 11.7665 9.89972 11.7715 9.88141 11.7783C9.85617 11.7783 9.84691 11.7875 9.81829 11.7926C9.78968 11.7976 9.76359 11.8044 9.7476 11.8044C9.7476 11.8044 9.7476 11.8044 9.73834 11.8044C9.72909 11.8044 9.70552 11.8094 9.68953 11.8119H9.68364L9.54815 11.8271H9.53132H9.57929H9.57339H9.52711C9.53667 11.8165 9.54461 11.8046 9.55067 11.7917C9.55895 11.7788 9.56387 11.7641 9.56498 11.7488C9.56839 11.7374 9.56982 11.7254 9.56919 11.7135C9.56919 11.705 9.56919 11.6823 9.57592 11.6672C9.5784 11.6595 9.5801 11.6516 9.58097 11.6436C9.58097 11.6335 9.59443 11.6251 9.58938 11.6184C9.59864 11.6108 9.58939 11.6015 9.60033 11.5914C9.61127 11.5813 9.60958 11.5679 9.61716 11.5645C9.62473 11.5611 9.61716 11.5595 9.61716 11.5586L9.62894 11.5393C9.63988 11.5224 9.6525 11.5048 9.66513 11.4888L9.69206 11.5292L9.67439 11.5443V11.5393L9.7173 11.4905L9.75013 11.461L9.73077 11.4736L9.67775 11.5199L9.68448 11.5132C9.7131 11.4871 9.74339 11.4627 9.77369 11.4383V11.4282C9.73919 11.456 9.70468 11.4837 9.67102 11.5123C9.65587 11.5266 9.64156 11.5418 9.6281 11.5569L9.64998 11.5342C9.66273 11.5149 9.67834 11.4976 9.69626 11.4829L9.71057 11.4694C9.71057 11.4694 9.71057 11.4694 9.7173 11.4694L9.68027 11.5006L9.6626 11.5174L9.6382 11.5426C9.64198 11.5355 9.64649 11.5287 9.65166 11.5224L9.66176 11.5081L9.6727 11.4947C9.7008 11.4697 9.7303 11.4464 9.76107 11.4248C9.90604 11.3273 10.0702 11.2619 10.2425 11.2329C10.2454 11.4101 10.221 11.5867 10.1701 11.7564M9.533 11.9112H9.54899H9.53132M9.52711 11.9154H9.54394L9.67354 11.9053H9.65419L9.58938 11.9104C9.56737 11.9137 9.54516 11.9157 9.5229 11.9163L9.52795 11.9121M11.1572 11.2388H11.1438L11.1194 11.2313L11.1017 11.2262C11.0882 11.2262 11.0563 11.2144 11.0268 11.2077C11.0721 11.2123 11.1168 11.2221 11.1598 11.2371M10.9915 11.2043C11.042 11.2153 11.0916 11.2279 11.1413 11.2422C11.1416 11.2439 11.1416 11.2456 11.1413 11.2472C11.0849 11.2313 11.0293 11.217 10.9729 11.2052H10.9595H10.994M11.0916 11.2346L11.1185 11.2422L11.1413 11.2481L11.0958 11.2346H11.0916ZM9.6584 11.2616C9.65524 11.2463 9.65327 11.2308 9.6525 11.2153V11.2279C9.65351 11.2415 9.65577 11.2551 9.65923 11.2683L9.65419 11.2616M9.63399 11.1909C9.63271 11.2046 9.63271 11.2184 9.63399 11.2321C9.62905 11.2178 9.62704 11.2026 9.6281 11.1875L9.63399 11.1909ZM9.363 11.9592C9.363 11.9592 9.35795 11.9592 9.35374 11.9659C9.35342 11.9631 9.35342 11.9603 9.35374 11.9575H9.363M10.42 11.3137L10.4082 11.2961L10.3965 11.2775C10.3906 11.2691 10.3889 11.27 10.3838 11.2624V11.2582L10.3906 11.2649C10.3813 11.2531 10.3712 11.2422 10.3611 11.2304H10.3569L10.346 11.2203C10.4327 11.2083 10.5201 11.201 10.6077 11.1984H10.6119H10.6178C10.6136 11.2026 10.6262 11.1984 10.6506 11.2052L10.6952 11.2119C10.7171 11.2119 10.7676 11.2119 10.8013 11.2186L10.8543 11.2245C10.8726 11.228 10.8912 11.2303 10.9098 11.2313C10.9334 11.238 10.9443 11.2313 10.9721 11.2414C10.9999 11.2515 11.0243 11.2506 11.0386 11.2557C11.0416 11.2549 11.0448 11.2549 11.0478 11.2557L11.0933 11.2666H11.0992L11.0849 11.2725H11.079C11.0355 11.2954 10.995 11.3236 10.9586 11.3566L10.9452 11.3667V11.3718C10.9595 11.3617 10.9746 11.3541 10.9889 11.3457V11.355C10.9499 11.3827 10.915 11.4158 10.8854 11.4534C10.8703 11.4702 10.8562 11.4879 10.8433 11.5064C10.8381 11.5022 10.8325 11.4986 10.8265 11.4955C10.8144 11.4881 10.8014 11.4825 10.7878 11.4787H10.771C10.7657 11.4774 10.7602 11.4774 10.755 11.4787C10.7491 11.4798 10.7436 11.4824 10.739 11.4862L10.728 11.4955L10.723 11.4997C10.723 11.4997 10.723 11.4997 10.7171 11.4997L10.7247 11.4871C10.7159 11.4958 10.7092 11.5065 10.7053 11.5182C10.7003 11.5327 10.6966 11.5477 10.6944 11.5628V11.5729C10.6944 11.5729 10.6944 11.5813 10.6944 11.5864C10.6944 11.5914 10.6944 11.5931 10.6944 11.5965V11.6201C10.6947 11.6324 10.6924 11.6448 10.6876 11.6562V11.6882L10.5984 11.7101C10.5942 11.5637 10.534 11.4245 10.4301 11.3213M10.707 11.6647L10.7028 11.679L10.7087 11.6832L10.691 11.6882H10.6969V11.6621L10.7011 11.6579V11.6697L10.707 11.6647ZM10.8467 11.5165C10.8349 11.5107 10.8239 11.5033 10.8139 11.4947L10.8492 11.5123M10.8391 11.5031H10.8484H10.8543V11.5081L10.8391 11.5031ZM10.8231 11.5123L10.8425 11.5224V11.5275L10.824 11.5174C10.8179 11.5139 10.8114 11.5111 10.8046 11.509H10.7979H10.8122C10.8147 11.5085 10.8173 11.5085 10.8198 11.509L10.8316 11.514M10.8619 11.5401L10.8492 11.5325H10.8534L10.8585 11.5275L10.8677 11.5325L10.8627 11.5409M10.8922 11.53L10.8854 11.5224V11.5182L10.8989 11.5258V11.5308L10.8922 11.53ZM10.8821 11.5132L10.872 11.5266H10.8677H10.8627L10.8669 11.5224V11.5182L10.8812 11.5039C10.9125 11.4652 10.9497 11.4317 10.9915 11.4046V11.4097L10.9763 11.4214C10.9373 11.4492 10.9027 11.4827 10.8736 11.5208L10.8821 11.5132ZM10.9915 12.1208H11.0361H11.0192H10.9898M11.0024 12.0854H11.0125H11.0007M10.978 11.6175H10.9822H10.9771H10.978ZM11.0924 11.3651C11.0748 11.3735 11.0571 11.3836 11.0394 11.3937C11.0345 11.4004 11.0285 11.4064 11.0218 11.4114C11.0142 11.4189 11.0032 11.4273 10.9931 11.4366C10.983 11.4459 10.9519 11.4753 10.9401 11.4871C10.9283 11.4989 10.9233 11.5064 10.9157 11.5174C10.9081 11.5283 10.9098 11.5241 10.9048 11.5266C10.9034 11.5269 10.902 11.5269 10.9006 11.5266L10.8879 11.5199C10.9199 11.4789 10.9583 11.4434 11.0016 11.4147C11.0345 11.3908 11.0701 11.3707 11.1076 11.355V11.36L11.0924 11.3651ZM9.69542 11.2809C9.69579 11.2826 9.69579 11.2843 9.69542 11.286C9.69073 11.284 9.68645 11.2811 9.6828 11.2775C9.67794 11.2588 9.67512 11.2396 9.67439 11.2203C9.67186 11.1921 9.67385 11.1637 9.68027 11.1362V11.1479C9.67763 11.1613 9.67622 11.1748 9.67607 11.1883C9.67607 11.1942 9.67607 11.2119 9.68196 11.2296C9.68427 11.2458 9.68793 11.2619 9.6929 11.2775M9.81577 12.2967L9.82671 12.2857H9.8326L9.82166 12.2958L9.81577 12.2967ZM9.84438 12.2815L9.83429 12.2874C9.8375 12.285 9.84034 12.2822 9.8427 12.279H9.84775C9.85498 12.2732 9.86257 12.2678 9.87047 12.263L9.84354 12.2857M9.80651 12.3051L9.79473 12.311L9.80399 12.3025L9.81745 12.2958L9.80483 12.3068M9.77453 12.3017L9.79894 12.2866L9.83849 12.2664L9.82419 12.2815L9.75686 12.3152L9.77453 12.3017ZM9.4379 12.4751H9.44632L9.43285 12.4852L9.41434 12.4911L9.4379 12.4751ZM10.1768 12.8664V12.8706V12.8655M9.73077 13.3806C9.77874 13.3806 9.82503 13.3738 9.86963 13.3671C9.82423 13.3782 9.77746 13.3828 9.73077 13.3806ZM10.1625 12.4002C10.1625 12.3623 10.2988 12.2201 10.4192 12.0501C10.4798 12.0434 10.5404 12.0383 10.6018 12.0349C10.5496 12.1494 10.4831 12.2874 10.3981 12.4557C10.2635 12.4389 10.1625 12.4195 10.1625 12.3968M11.0563 12.0938H11.031C11.0192 12.0938 11.0083 12.0938 10.9973 12.0938H10.9662V12.0888H11.0504L11.0563 12.0938Z" fill="white"/>
<path fill-rule="evenodd" clip-rule="evenodd" d="M6.25002 10.6607L6.28452 10.6439L6.25086 10.6616L6.2761 10.6489C6.30191 10.6355 6.328 10.6229 6.35437 10.6111L6.34427 10.6161C6.30037 10.6358 6.25766 10.658 6.21635 10.6826L6.20709 10.691C6.25412 10.6625 6.30305 10.6372 6.35353 10.6153C6.37625 10.6043 6.39982 10.5942 6.42254 10.585H6.4116L6.37709 10.5993C6.36784 10.606 6.31987 10.6287 6.30135 10.6388L6.27947 10.6506H6.27106L6.32323 10.6237L6.35016 10.6111C6.38214 10.5959 6.41412 10.5825 6.44695 10.5698L6.43096 10.5757L6.40992 10.585L6.36531 10.6043C6.41399 10.5809 6.46401 10.5604 6.51511 10.5429H6.51932H6.53615L6.51091 10.5547C6.47222 10.5677 6.43429 10.5829 6.39729 10.6001L6.40992 10.5959L6.43264 10.5884L6.44358 10.5841C6.46847 10.5725 6.49439 10.5632 6.521 10.5564L6.48734 10.569L6.50333 10.5631L6.49912 10.5682H6.4865C6.50226 10.5645 6.51773 10.5598 6.53279 10.5539L6.55719 10.5463C6.56982 10.5463 6.56982 10.5412 6.58076 10.5387H6.58581H6.5917L6.58076 10.5438C6.59675 10.5379 6.61274 10.5337 6.62957 10.5286C6.65779 10.5276 6.68603 10.5298 6.71373 10.5353C6.74137 10.5412 6.76969 10.5432 6.79788 10.5412C6.81502 10.5411 6.83169 10.5357 6.84567 10.5258C6.85966 10.5159 6.87029 10.5019 6.87614 10.4858C6.882 10.4697 6.8828 10.4522 6.87844 10.4357C6.87408 10.4191 6.86477 10.4042 6.85175 10.3931C6.78189 10.3199 6.64051 10.1752 6.61021 10.1752C6.57992 10.1752 6.54036 10.1945 6.49071 10.1146C6.36444 10.2424 6.19862 10.3236 6.02026 10.3451C6.02026 10.3451 6.13977 10.4251 6.23992 10.4848C6.34007 10.5446 6.23992 10.6447 6.23992 10.6447" fill="white"/>
<path fill-rule="evenodd" clip-rule="evenodd" d="M8.5576 12.6451C8.54245 12.6409 8.5273 12.6384 8.51131 12.635L8.46082 12.6055H8.4827C8.48775 12.6055 8.48775 12.6055 8.49112 12.6097V12.603L8.44988 12.5963C8.40948 12.5727 8.36572 12.55 8.32785 12.5281L8.29671 12.5138L8.24117 12.4852L8.25463 12.4902L8.29924 12.5104C8.33525 12.5171 8.36993 12.5296 8.40191 12.5475L8.42968 12.5618C8.43641 12.5618 8.43641 12.5618 8.43978 12.5702V12.5643L8.37329 12.5281L8.33795 12.5121C8.29671 12.4928 8.25379 12.4743 8.21339 12.4566V12.4507L8.23359 12.4599L8.26221 12.4684L8.32028 12.4944V12.4886C8.25463 12.4633 8.18815 12.4397 8.12166 12.4179L8.09894 12.4095H8.08968V12.4036C8.10399 12.4086 8.11156 12.4036 8.13345 12.4036C8.18394 12.4187 8.23443 12.4355 8.28493 12.4532L8.27146 12.4406L8.24285 12.4254L8.22938 12.4196C8.20919 12.4103 8.13008 12.396 8.12755 12.3817L8.173 12.3926L8.15196 12.3842L8.17721 12.3707L8.19404 12.3775C8.19404 12.3665 8.15112 12.3573 8.13428 12.3505L8.1023 12.3388C8.08547 12.332 8.08379 12.3388 8.06948 12.3329H8.06275C8.05602 12.3329 8.0577 12.3329 8.0577 12.3245H8.07369L8.00216 12.3118L7.9929 12.316C7.97186 12.3085 7.8877 12.316 7.87592 12.3001H7.82458H7.83384V12.3102H7.8734L7.87929 12.3177H7.86161V12.3245L7.57632 12.2193L7.55107 12.2083L7.56454 12.2008L7.58389 12.2083C7.58389 12.1974 7.53255 12.1831 7.5132 12.1747L7.47533 12.157C7.45597 12.1486 7.45345 12.157 7.43746 12.1469H7.42904C7.42062 12.1469 7.42315 12.1469 7.42315 12.1368H7.44251L7.35835 12.1115H7.34741C7.323 12.0998 7.22285 12.0855 7.21107 12.0686L7.18246 12.0619C6.98553 11.9777 6.87781 11.9012 6.97964 11.8465C7.1925 11.7316 7.3972 11.6023 7.59231 11.4593C7.59167 11.4613 7.59167 11.4633 7.59231 11.4652C7.57548 11.4762 7.57295 11.4863 7.55528 11.4997C7.5422 11.5129 7.52782 11.5248 7.51236 11.5351C7.51236 11.5351 7.51236 11.5393 7.50815 11.541L7.47785 11.5645H7.47365C7.44503 11.5856 7.41642 11.6058 7.38949 11.6251L7.37855 11.6319L7.41137 11.6142V11.6184C7.38107 11.6386 7.34993 11.6563 7.31795 11.6739L7.25147 11.7051L7.28682 11.6916C7.32216 11.6765 7.35667 11.6588 7.39117 11.6411L7.37771 11.6487C7.32116 11.6783 7.263 11.7047 7.2035 11.7278L7.19087 11.7371C7.25972 11.7119 7.32666 11.6818 7.39117 11.647C7.42063 11.6302 7.45008 11.6133 7.47533 11.5948L7.46271 11.6033L7.41894 11.6302C7.38724 11.6518 7.35405 11.6712 7.31964 11.6882L7.29018 11.7026H7.27756L7.34909 11.668C7.36172 11.6622 7.3735 11.6554 7.38528 11.6487C7.42652 11.626 7.46944 11.6007 7.50731 11.5738L7.48795 11.5873L7.46271 11.6049L7.40548 11.6394C7.46826 11.6011 7.52843 11.5587 7.58558 11.5124L7.60577 11.4964L7.61419 11.4896C7.60241 11.4989 7.59988 11.5048 7.58305 11.5208C7.53929 11.5561 7.49384 11.5889 7.44672 11.6201L7.46355 11.6125L7.49216 11.5957L7.50478 11.5864C7.52498 11.5746 7.58894 11.5199 7.59652 11.5183L7.55864 11.5502L7.578 11.5368L7.57379 11.5452L7.55949 11.5561C7.57888 11.5447 7.59694 11.5311 7.61335 11.5157C7.62429 11.5082 7.63186 11.5014 7.64196 11.493C7.65051 11.4853 7.65865 11.4772 7.66637 11.4686L7.67226 11.4636C7.67815 11.4585 7.67226 11.4636 7.67983 11.4636L7.66889 11.4762C7.68741 11.4585 7.70508 11.44 7.72275 11.4215L7.72696 11.4139C7.74256 11.3965 7.75637 11.3776 7.7682 11.3575C7.77918 11.338 7.78874 11.3178 7.79681 11.2969C7.80186 11.2766 7.80356 11.2555 7.80186 11.2347C7.80228 11.2389 7.80228 11.2431 7.80186 11.2473V11.2523C7.80118 11.2683 7.79835 11.2842 7.79345 11.2995L7.7884 11.307C7.79075 11.3004 7.79271 11.2937 7.79429 11.2868C7.79429 11.2784 7.79849 11.27 7.80018 11.2616V11.2557C7.80528 11.2493 7.80884 11.2417 7.81059 11.2337C7.81234 11.2257 7.81223 11.2174 7.81028 11.2094C7.78082 11.1362 7.58894 10.7886 7.44924 10.7743C7.43849 10.7665 7.42605 10.7613 7.41292 10.7592C7.39979 10.7572 7.38635 10.7582 7.37371 10.7623C7.36106 10.7664 7.34957 10.7735 7.34017 10.7829C7.33077 10.7923 7.32373 10.8038 7.31964 10.8164C7.31543 10.8164 7.3129 10.8164 7.31374 10.8248H7.2927V10.8156L7.28597 10.8257L7.29607 10.8307L7.28766 10.8374C7.27082 10.824 7.27166 10.8374 7.25567 10.856C7.24919 10.8612 7.24301 10.8668 7.23716 10.8728L7.22285 10.8879C7.21276 10.9048 7.20434 10.9553 7.19087 10.9856C7.18319 11.0015 7.177 11.0181 7.17236 11.0352C7.16563 11.0554 7.14122 11.0714 7.15132 11.0865C7.13112 11.1008 7.1429 11.121 7.12523 11.1421C7.10756 11.1631 7.10419 11.1909 7.0882 11.1985C7.0882 11.2027 7.09493 11.2077 7.0882 11.2094L7.06379 11.249L7.05959 11.254C7.03602 11.2902 7.01246 11.3264 6.98805 11.3617L6.97711 11.3735H6.983L7.01667 11.3424V11.3516C6.98974 11.3861 6.96281 11.4215 6.93251 11.456L6.87107 11.5216L6.87612 11.5267L6.91315 11.4972L7.01583 11.3979H7.02088L6.99899 11.445C6.94345 11.5006 6.88622 11.5553 6.83068 11.6133L6.82563 11.6335C6.89127 11.5721 6.95607 11.5098 7.02088 11.4459L7.09998 11.3617L7.07978 11.3945L7.05538 11.4223C7.03239 11.4627 7.00409 11.4997 6.97122 11.5326L6.94345 11.562C6.93672 11.5687 6.93672 11.5687 6.92998 11.5704L6.93503 11.5755L7.00404 11.5073L7.02003 11.4905C6.95766 11.5957 6.87111 11.6846 6.76756 11.7497C6.71875 11.6807 6.76756 11.3895 6.82142 11.3045C6.82793 11.2931 6.83554 11.2824 6.84414 11.2725L6.85424 11.2607L6.8332 11.3003L6.81637 11.3247L6.82815 11.3138L6.85761 11.2759V11.2809L6.8088 11.3441V11.3516L6.86434 11.2801L6.88706 11.2456L6.88286 11.2506L6.87191 11.2675C6.8668 11.2824 6.85912 11.2964 6.84919 11.3087L6.84162 11.3196C6.84162 11.3196 6.84162 11.3196 6.83741 11.3239L6.85677 11.2978L6.86603 11.2843L6.89211 11.2448L6.88622 11.2557L6.87191 11.2776L6.89127 11.2431C6.89487 11.2439 6.89862 11.2439 6.90221 11.2431L6.89043 11.2649L6.91484 11.2767L6.92409 11.2658V11.2607C6.93531 11.2602 6.94613 11.2564 6.95523 11.2498C7.00032 11.2033 7.03126 11.1449 7.04444 11.0815C7.0482 11.0717 7.0482 11.0609 7.04444 11.0512C7.00813 10.9858 6.95865 10.9286 6.89911 10.8832C6.83958 10.8379 6.77128 10.8054 6.69855 10.7878C6.57063 10.7432 6.45028 10.7423 6.43008 10.7928C6.39053 10.8921 6.01519 11.0706 5.91251 11.1118C5.91352 11.0954 5.91692 11.0792 5.92261 11.0638C5.92261 11.0638 5.92261 11.0638 5.92766 11.0588L5.96048 11.0428L6.05222 10.999H6.064L6.02949 11.0108V11.0058L6.12543 10.9654L6.19192 10.9418L6.15657 10.9511L6.05053 10.9864L6.064 10.9813C6.12291 10.9612 6.18098 10.9426 6.23989 10.9241L6.25251 10.9149C6.18519 10.9359 6.1187 10.9578 6.05137 10.9805C6.02108 10.9912 5.99078 11.0029 5.96048 11.0159L5.97395 11.0108L6.01939 10.9931C6.05218 10.9762 6.08622 10.9619 6.12123 10.9502L6.15068 10.9393C6.15454 10.9382 6.1586 10.9382 6.16246 10.9393L6.09093 10.9628L6.05474 10.9763C6.01266 10.9923 5.97058 11.0083 5.9285 11.026L5.9487 11.0175L5.97563 11.0049L6.03538 10.9822C5.9992 10.9965 5.96385 11.0125 5.92766 11.0285C5.92138 11.0282 5.91516 11.0299 5.90999 11.0335L5.894 11.0411C5.89439 11.038 5.89439 11.0349 5.894 11.0318C5.92598 11.0175 5.95796 11.0024 5.98994 10.9889H5.97226L5.94197 10.999L5.9285 11.0049L5.894 11.0209C5.894 11.0133 5.88558 11.0108 5.86959 11.0209C5.84935 11.0268 5.82987 11.0349 5.81153 11.0453L5.77954 11.0596C5.7644 11.0663 5.76524 11.0697 5.75177 11.0756H5.74504C5.73831 11.0756 5.74083 11.0756 5.73747 11.0756L5.74925 11.0663L5.68697 11.1042L5.68192 11.1101L5.67098 11.1168L5.46984 11.1926C5.43954 11.2624 5.61964 11.4223 5.69959 11.4821C5.71147 11.4904 5.72551 11.495 5.73999 11.4955C5.82415 11.5544 6.02024 11.3945 6.06989 11.3525C6.17868 11.2863 6.29106 11.2261 6.40652 11.1724C6.40652 11.1917 6.40652 11.2153 6.40652 11.2321C6.40525 11.2473 6.40525 11.2625 6.40652 11.2776C6.40652 11.2961 6.39137 11.3154 6.40652 11.3247C6.39474 11.3424 6.40652 11.355 6.40652 11.3769C6.40652 11.3988 6.40652 11.4215 6.39642 11.4324C6.38632 11.4434 6.404 11.4324 6.39642 11.4408V11.4795V11.4846L6.3838 11.5788C6.31441 11.512 6.23593 11.4554 6.15068 11.4105C6.14134 11.4078 6.1314 11.4078 6.12207 11.4105H6.11786C6.1086 11.4046 6.10524 11.4181 6.0943 11.4105V11.4147C6.0884 11.4097 6.08504 11.4089 6.08504 11.4147H6.07578C6.06905 11.408 6.06905 11.4147 6.06063 11.4198C6.05539 11.4229 6.05033 11.4262 6.04548 11.4299C6.03959 11.4366 6.0337 11.4568 6.02613 11.4686C6.02254 11.4745 6.01945 11.4807 6.01687 11.4871C6.01687 11.4955 6.00172 11.4997 6.00509 11.5073C6.00845 11.5149 6.00004 11.5208 5.99246 11.5284C5.98489 11.5359 5.98152 11.5469 5.97479 11.5494C5.96806 11.5519 5.97479 11.5536 5.97479 11.5536L5.96301 11.5679C5.95207 11.5814 5.94029 11.594 5.9285 11.6075H5.9243L5.93944 11.5974L5.90073 11.6344L5.87212 11.6563L5.88895 11.647L5.90662 11.6344C5.89063 11.6479 5.87212 11.6613 5.8536 11.6748C5.75766 11.7429 5.63984 11.8069 5.60618 11.7589C5.59896 11.7492 5.59486 11.7374 5.5944 11.7253C5.59501 11.7244 5.59534 11.7234 5.59534 11.7223C5.59534 11.7213 5.59501 11.7202 5.5944 11.7194C5.60618 11.7194 5.60534 11.7068 5.61712 11.7009C5.6289 11.695 5.63563 11.684 5.64405 11.684C5.65246 11.684 5.64405 11.679 5.64405 11.6798L5.66172 11.6672C5.67855 11.6563 5.69623 11.6453 5.7139 11.6361H5.72063L5.70044 11.6428V11.6386L5.75598 11.6117L5.79553 11.5974L5.77365 11.6016C5.75261 11.6075 5.73157 11.615 5.71053 11.6226H5.71895C5.7543 11.6108 5.7888 11.5999 5.82499 11.5898L5.83172 11.5831C5.79133 11.5932 5.74756 11.6058 5.71053 11.6192L5.65667 11.6428H5.66509L5.69202 11.631C5.71047 11.6187 5.73059 11.6091 5.75177 11.6024L5.76945 11.5957C5.77191 11.5949 5.77455 11.5949 5.77702 11.5957L5.73326 11.61L5.71138 11.6184L5.63563 11.6512L5.64826 11.6453L5.66341 11.6369L5.69875 11.6218C5.6735 11.6335 5.6491 11.647 5.62469 11.6596L5.58346 11.6723C5.61123 11.6554 5.63984 11.6394 5.66761 11.6251H5.65667L5.63816 11.6319L5.63058 11.6361C5.61796 11.6411 5.57841 11.6697 5.57167 11.6664L5.59608 11.6504L5.58346 11.6563V11.6487L5.59271 11.6436C5.58766 11.6436 5.56662 11.6554 5.55652 11.6605L5.53801 11.6706C5.52875 11.6756 5.53044 11.6781 5.52202 11.6832C5.51781 11.6832 5.52202 11.6832 5.51613 11.6832L5.52286 11.6756L5.48752 11.7034V11.7084L5.48078 11.7135C5.41935 11.7404 5.36212 11.769 5.32004 11.7918C5.28747 11.8149 5.25903 11.8433 5.23588 11.8759C5.20811 11.9205 5.22578 12.0005 5.42776 12.1402C5.51192 12.2008 5.60197 12.1334 5.70801 12.056C5.81405 11.9786 5.89821 11.9247 5.94534 11.9348L5.93355 11.9441V11.934C5.93391 11.9382 5.93391 11.9424 5.93355 11.9466H5.9386L5.93355 11.955C5.92514 11.9474 5.9243 11.9618 5.91251 11.9853C5.90691 11.9928 5.90185 12.0007 5.89737 12.0089C5.89147 12.019 5.88558 12.0274 5.88558 12.0274C5.87548 12.0484 5.85697 12.1014 5.83761 12.1359C5.83172 12.1486 5.81489 12.1755 5.80984 12.189C5.80479 12.2024 5.7745 12.2336 5.77702 12.2454C5.75682 12.2655 5.7585 12.2815 5.73831 12.3068C5.7239 12.3288 5.70816 12.3498 5.69118 12.3699C5.69118 12.3741 5.69118 12.3766 5.69118 12.3808L5.65836 12.4238L5.65331 12.4297C5.62217 12.47 5.59019 12.5088 5.55737 12.5475L5.54474 12.5601L5.58346 12.5231V12.5306C5.54979 12.5693 5.51445 12.6072 5.47826 12.6442L5.40083 12.7149C5.41514 12.704 5.42945 12.6931 5.44291 12.6813C5.48415 12.6451 5.52707 12.6072 5.5641 12.5685L5.54895 12.5845C5.49284 12.6406 5.43674 12.6919 5.38063 12.7385C5.27145 12.8058 5.15754 12.8652 5.03979 12.9161C5.92009 13.0162 6.16078 12.5559 6.18098 12.2563C6.18297 12.1958 6.19746 12.1364 6.22353 12.0818C6.2496 12.0272 6.28669 11.9786 6.33246 11.939L6.38296 11.907L6.39474 11.9003H6.39895C6.39221 11.9003 6.39222 11.9096 6.38212 11.9171L6.3089 11.966H6.319L6.33499 11.9584H6.34172C6.35266 11.9517 6.38632 11.9239 6.39305 11.9272L6.37202 11.9424L6.38296 11.9365V11.95L6.37538 11.955C6.37959 11.955 6.3981 11.9441 6.40652 11.939L6.41914 11.9323C6.41157 12.0964 6.40484 12.2529 6.3981 12.3657C6.39325 12.57 6.35487 12.7722 6.28449 12.964C6.28037 12.9618 6.27711 12.9582 6.27523 12.9539C6.27523 12.9539 6.26766 12.9598 6.26682 12.9539L6.23652 12.9354L6.15236 12.8858L6.14395 12.8782V12.8832L6.16751 12.9076H6.16078L6.08083 12.8521L6.03118 12.8092L6.02697 12.8134L6.04885 12.8412L6.12375 12.9135V12.9177L6.0943 12.8925L6.02949 12.8311C6.02434 12.8242 6.01871 12.8178 6.01266 12.8117L5.9891 12.789H5.97395H5.95796C5.97816 12.8168 6.00004 12.8437 6.02108 12.8731L6.03959 12.8917C6.05306 12.9068 6.06568 12.9228 6.07915 12.9388L6.10692 12.9682L6.12291 12.98V12.9842H6.07326L6.05306 12.9632C6.03707 12.9632 5.99415 12.9161 5.97816 12.8976L5.9588 12.8765C5.95375 12.8723 5.95459 12.8715 5.95375 12.8664L5.9487 12.8706L5.9933 12.9236L6.01771 12.9489L6.05222 12.9851H6.03959L6.02444 12.9691L6.02024 12.9733L6.03286 12.9851C5.97311 12.9851 5.92261 12.9918 5.92261 12.9918C5.94549 12.9919 5.96821 12.9956 5.98994 13.0027H5.96217C5.97857 13.0027 5.99494 13.0044 6.01098 13.0078L6.03454 13.0196L6.03959 13.0322L6.05727 13.0549L6.06652 13.0642C6.07999 13.0785 6.1389 13.1172 6.13469 13.1315L6.10187 13.1063L6.11533 13.1206L6.10187 13.1248L6.09177 13.1138C6.09177 13.1239 6.11786 13.1458 6.12796 13.1567L6.14816 13.1786C6.15826 13.1896 6.16246 13.1854 6.17172 13.1946H6.17593C6.18014 13.1997 6.17593 13.1946 6.17593 13.2039L6.16246 13.1988L6.21212 13.2359H6.22053L6.23568 13.256L6.2441 13.2645C6.25588 13.2762 6.30637 13.3124 6.30217 13.3242L6.27439 13.3015L6.28618 13.3141H6.27439L6.26514 13.304C6.26514 13.3133 6.28702 13.3326 6.29627 13.3427L6.31311 13.3629C6.32152 13.373 6.32573 13.3697 6.33246 13.3781L6.33667 13.3823C6.33667 13.3865 6.33667 13.3823 6.33667 13.3907L6.32573 13.3856L6.36781 13.4202H6.37538C6.38548 13.4336 6.44355 13.4648 6.44355 13.4799L6.47637 13.5026L6.47216 13.4959C6.51593 13.5363 6.55632 13.5632 6.57736 13.5598C6.58353 13.5651 6.59087 13.5689 6.59877 13.5708C6.60667 13.5727 6.61491 13.5727 6.62281 13.5708C6.77934 13.5009 6.94766 13.5657 6.88286 13.3108C6.82142 13.0709 6.6935 12.2243 6.75409 12.1376L6.7583 12.1452L6.79112 12.1932L6.80711 12.2151C6.84903 12.2657 6.88781 12.3188 6.92325 12.3741L6.87107 12.3068L6.89464 12.3396L6.88033 12.332L6.86182 12.3068C6.88202 12.3398 6.90422 12.3716 6.9283 12.4019L6.96449 12.4532C6.983 12.4793 6.98553 12.4776 7.00152 12.4995L7.00909 12.5104C7.01667 12.5214 7.01414 12.518 7.0133 12.5231L6.99479 12.5029L7.07894 12.6064L7.08988 12.6156C7.10167 12.6325 7.13365 12.6712 7.1631 12.7074C7.20858 12.8002 7.2682 12.8853 7.33983 12.9598L7.32805 12.9514L7.37181 13.0011H7.38107C7.39033 13.0187 7.45345 13.0659 7.45092 13.0852L7.48543 13.118L7.48122 13.1096L7.48795 13.1012L7.46271 13.0734V13.0642L7.4728 13.0768L7.48122 13.0717L7.49048 13.0903L7.50731 13.0861V13.0903L7.51825 13.0819L7.51067 13.0675L7.52414 13.0726V13.0633L7.53508 13.0566H7.54097L7.55107 13.0776V13.1046H7.56706L7.57463 13.0978V13.0835L7.58305 13.0793V13.0726C7.60157 13.06 7.58305 13.0448 7.60493 13.0305H7.59567C7.60998 13.0221 7.61503 13.0171 7.60577 13.0137C7.61166 13.0187 7.61671 13.0137 7.6285 13.0061L7.6327 13.0112C7.62814 13.015 7.62417 13.0196 7.62092 13.0246C7.61522 13.027 7.60985 13.0301 7.60493 13.0339L7.6184 13.0457H7.62597C7.62705 13.043 7.62846 13.0404 7.63018 13.0381L7.63775 13.044C7.63775 13.044 7.63775 13.044 7.63775 13.0398C7.65458 13.0524 7.6529 13.0356 7.67394 13.0566V13.0507C7.68488 13.0625 7.68909 13.0675 7.68741 13.0617L7.69835 13.0743L7.69246 13.0659C7.70255 13.0819 7.69919 13.0768 7.70929 13.0776C7.71853 13.0785 7.72782 13.0785 7.73706 13.0776C7.748 13.0734 7.76651 13.0465 7.7825 13.0347C7.7985 13.0229 7.80186 13.0221 7.80607 13.0137C7.81028 13.0053 7.83384 13.0086 7.83132 12.9926C7.84731 12.9926 7.84562 12.975 7.86077 12.9708C7.87592 12.9666 7.88602 12.9506 7.89612 12.9539C7.90622 12.9573 7.89612 12.9447 7.89612 12.9464L7.91968 12.9337L7.98785 12.9001H7.99627V12.8942H7.96934V12.8866L8.04255 12.8597L8.09389 12.8479V12.8412H8.06528L7.98112 12.8546V12.8479H7.99122L8.12924 12.826L8.13681 12.8142L7.97859 12.8378L7.94156 12.8471L8.01057 12.8134L8.02909 12.8092L8.05265 12.8041C8.0577 12.8041 8.0577 12.8041 8.06191 12.8041V12.7982L8.03245 12.8033L8.1284 12.7553L8.19572 12.7326H8.21255V12.7267L8.18394 12.7309L8.21844 12.7133L8.31186 12.6888L8.41117 12.672V12.6661H8.35815L8.29671 12.6745C8.29671 12.6745 8.29671 12.6686 8.29671 12.6703L8.32196 12.6653L8.39097 12.6535H8.39938V12.6493L8.47513 12.64L8.48438 12.6341H8.49785V12.6283L8.47765 12.6198C8.4524 12.6156 8.42716 12.6106 8.40191 12.6072L8.41201 12.6013C8.45493 12.6081 8.49617 12.6156 8.53824 12.6257L8.5576 12.6451ZM6.83573 12.2167L6.81216 12.1839L6.79028 12.1553L6.81469 12.1822L6.83909 12.2151M8.40191 12.5752L8.39349 12.5693L8.43725 12.5938H8.42295L8.40191 12.5761M8.4322 12.6013H8.45072L8.50037 12.6299L8.4524 12.6207L8.4322 12.6013ZM7.78671 11.2961V11.291C7.78671 11.291 7.78671 11.2952 7.78671 11.2978M5.86034 10.9982H5.86707L5.85949 11.0024L5.86034 10.9982ZM6.38717 11.5679L6.39222 11.5746V11.5923L6.38464 11.5856L6.38717 11.5679ZM5.52791 12.5811C5.56157 12.5466 5.59524 12.5113 5.62722 12.4751L5.61291 12.4919L5.56326 12.5449C5.52928 12.5878 5.49185 12.6277 5.45133 12.6644L5.43618 12.6787L5.36296 12.7267C5.41851 12.6796 5.47321 12.6299 5.52539 12.5786M5.4488 12.6695C5.46143 12.6577 5.47489 12.6468 5.48752 12.6341L5.52875 12.5938C5.57588 12.5449 5.62217 12.4953 5.66677 12.4431L5.64489 12.4684L5.61712 12.502C5.59608 12.5256 5.5742 12.5483 5.55232 12.571C5.62385 12.4936 5.69034 12.4128 5.75346 12.3295L5.77618 12.3001L5.78543 12.2883C5.77197 12.3059 5.77113 12.3152 5.75261 12.3421C5.70464 12.4061 5.65499 12.4684 5.60197 12.5281L5.62133 12.5113L5.65499 12.4776L5.6693 12.4608C5.69118 12.4364 5.75935 12.3388 5.77113 12.3346C5.75766 12.3539 5.7442 12.3733 5.72989 12.3918L5.75093 12.3657V12.3792L5.73494 12.3994C5.75789 12.3771 5.77822 12.3522 5.79553 12.3253L5.8191 12.295C5.71638 12.4383 5.58797 12.5613 5.44039 12.6577M5.9184 12.7663L5.95964 12.8058L5.97058 12.8243C5.99078 12.8496 6.01182 12.8757 6.0337 12.9009L6.00341 12.8765C5.97395 12.8403 5.94449 12.805 5.91925 12.768L5.9184 12.7663ZM6.04969 13.0187C6.06451 13.0301 6.07857 13.0425 6.09177 13.0558L6.04969 13.0187ZM6.9081 12.3455L6.744 12.1292H6.74904L6.76756 12.1444C6.82058 12.2142 6.87276 12.2841 6.92493 12.3548L6.95102 12.3909L6.96112 12.4069C6.94513 12.385 6.93588 12.38 6.91063 12.348M8.46755 12.6468L8.38339 12.656H8.37582V12.6501H8.44735H8.46082M8.42042 12.6123H8.42631H8.4179" fill="white"/>
<path fill-rule="evenodd" clip-rule="evenodd" d="M20.3389 13.5489L20.3439 13.5245C20.3382 13.4744 20.3284 13.4249 20.3145 13.3764C20.3106 13.3516 20.3038 13.3273 20.2943 13.304C20.2842 13.2746 20.2892 13.235 20.2699 13.2291C20.2699 13.1938 20.2472 13.1854 20.2396 13.145C20.232 13.1046 20.2093 13.081 20.2118 13.0608C20.2068 13.0608 20.2 13.0608 20.2017 13.0507L20.1807 12.9952V12.9876C20.1622 12.9363 20.1453 12.8849 20.131 12.8328V12.8134H20.1243C20.1243 12.8328 20.1243 12.8521 20.1302 12.8715L20.1218 12.8656C20.1083 12.8109 20.0965 12.7562 20.0864 12.6973C20.0864 12.6602 20.0788 12.6224 20.0772 12.5853H20.0696V12.6443C20.0696 12.7048 20.0772 12.7646 20.0839 12.8243H20.0772L20.0729 12.8008C20.0622 12.7016 20.0568 12.6018 20.057 12.502L20.0452 12.4793C20.0432 12.5937 20.0489 12.7081 20.062 12.8218C20.0696 12.874 20.0797 12.9262 20.0915 12.9783H20.0847L20.0797 12.9556C20.0738 12.9295 20.0687 12.9034 20.0637 12.8774C20.0439 12.8206 20.0317 12.7614 20.0275 12.7015L20.0225 12.6493C20.0211 12.6461 20.0204 12.6427 20.0204 12.6392C20.0204 12.6357 20.0211 12.6323 20.0225 12.6291H20.0149C20.0149 12.6703 20.0199 12.7133 20.0241 12.7528L20.0334 12.8159C20.0443 12.8883 20.0595 12.9607 20.0763 13.0314C20.0687 13.0128 20.0612 12.9943 20.0544 12.975C20.054 12.9736 20.054 12.9721 20.0544 12.9708L20.0494 12.9565C20.0426 12.922 20.0359 12.8883 20.03 12.8538H20.0225C20.0292 12.8824 20.0351 12.9102 20.0426 12.9379C19.963 12.7258 19.8988 12.5081 19.8508 12.2866C19.8508 12.2706 19.844 12.2555 19.8415 12.2395C19.8482 12.2109 19.8567 12.1831 19.8651 12.1553C19.8735 12.1275 19.8971 12.0779 19.9147 12.0409H19.9088C19.8962 12.0594 19.8853 12.0779 19.8743 12.0964C19.8457 12.1576 19.8209 12.2206 19.8003 12.2849H19.7935L19.8011 12.2597C19.8353 12.1538 19.8825 12.0526 19.9417 11.9584L19.9459 11.9298C19.8742 12.0368 19.8176 12.1532 19.7776 12.2757C19.7611 12.3333 19.7476 12.3917 19.7372 12.4507H19.7296L19.7346 12.4238C19.7405 12.3943 19.7473 12.3649 19.754 12.3396C19.7552 12.3082 19.7603 12.2771 19.7691 12.247C19.7789 12.2117 19.7904 12.1769 19.8036 12.1427C19.8104 12.1242 19.8179 12.1065 19.8255 12.088C19.8279 12.0807 19.8322 12.0743 19.8381 12.0695H19.8314C19.811 12.1117 19.7927 12.155 19.7767 12.1991C19.7691 12.2218 19.7616 12.2445 19.7548 12.2681C19.7314 12.3496 19.7134 12.4325 19.701 12.5163H19.6942L19.7001 12.4751C19.7001 12.4574 19.7001 12.4389 19.7069 12.4204C19.7144 12.3817 19.7237 12.343 19.7338 12.3051H19.7262C19.6985 12.4336 19.6825 12.5642 19.6782 12.6956C19.6782 12.7107 19.6782 12.7259 19.6782 12.741V12.7587H19.6707C19.6707 12.7309 19.6614 12.7208 19.6614 12.6796C19.6643 12.5795 19.6738 12.4797 19.69 12.3808C19.685 12.3901 19.6808 12.4002 19.6757 12.4103C19.6707 12.4204 19.6656 12.4499 19.6614 12.4692L19.6564 12.497C19.6564 12.518 19.6505 12.566 19.6488 12.6097C19.6508 12.6405 19.6468 12.6714 19.637 12.7006C19.637 12.6712 19.637 12.6417 19.637 12.6123V12.6543L19.6235 12.6384V12.6055C19.6109 12.614 19.6109 12.6939 19.6092 12.7267C19.6076 12.7595 19.6092 12.7688 19.6092 12.7915C19.6092 12.8142 19.6151 12.8243 19.6143 12.8521V12.8664C19.6143 12.8799 19.6143 12.8757 19.6067 12.8799L19.6 12.8513C19.6 12.8732 19.6017 12.8942 19.605 12.9144C19.4771 12.7881 19.3733 12.6395 19.2987 12.4759C19.5512 11.897 19.8701 11.8616 19.8449 11.8515C19.8196 11.8414 19.8398 11.8002 19.8213 11.6832C19.8104 11.6134 19.7195 11.5233 19.6471 11.4627C19.605 11.4265 19.5688 11.4004 19.5629 11.3946L19.552 11.3853C19.5301 11.371 19.5335 11.3853 19.5066 11.3685V11.3752C19.4923 11.3643 19.4855 11.3609 19.488 11.3676L19.4704 11.3601V11.355L19.4788 11.3617H19.4729C19.4569 11.3474 19.4594 11.355 19.4493 11.3617C19.4427 11.3624 19.4363 11.3638 19.43 11.3659L19.4426 11.3533C19.4695 11.3272 19.5158 11.291 19.5158 11.291L19.5015 11.3112L19.4636 11.3483L19.4695 11.3533C19.5064 11.3101 19.5482 11.2714 19.5941 11.238L19.5099 11.3424L19.5251 11.3373L19.547 11.3213L19.5554 11.3121C19.5688 11.2995 19.6 11.2406 19.616 11.2456L19.5941 11.2784L19.6067 11.265L19.6134 11.2784L19.6033 11.2894C19.6143 11.2936 19.6336 11.2633 19.6437 11.2532L19.6597 11.2363C19.6741 11.2493 19.692 11.2577 19.7112 11.2606C19.7303 11.2634 19.7499 11.2606 19.7675 11.2523C19.8693 11.1968 19.972 11.1867 19.9459 11.084C19.8895 10.8593 19.584 10.7474 19.584 10.7474L19.4998 10.7171L19.4342 10.7533C19.2431 10.9359 19.0841 11.0823 18.952 11.1976C18.9006 10.8215 18.8922 10.532 18.8897 10.5C18.883 10.4158 18.6515 10.2829 18.4882 10.2012C18.325 10.1196 18.2686 10.3881 18.2686 10.3881L18.2088 10.6405C18.2579 10.5522 18.3194 10.4714 18.3915 10.4007C18.3972 10.4164 18.4019 10.4324 18.4058 10.4487C18.4081 10.4616 18.4118 10.4743 18.4167 10.4865C18.4226 10.5025 18.4117 10.5236 18.4277 10.5278C18.4201 10.5463 18.4386 10.5522 18.4378 10.5732C18.4369 10.5942 18.4487 10.6111 18.442 10.6229C18.4352 10.6346 18.4504 10.6229 18.4479 10.6296L18.4521 10.6632V10.6683L18.463 10.7634V10.7743H18.4689L18.4739 10.7407L18.4798 10.7449L18.4849 10.8425V10.9081H18.4916L18.4992 10.8736L18.5101 10.7693H18.516V10.7718L18.4992 10.9443L18.5084 10.9578L18.5295 10.7617C18.5334 10.7853 18.5376 10.8097 18.5421 10.8349V10.8602C18.5421 10.8669 18.5421 10.8669 18.5421 10.8711H18.5286V10.8534C18.5573 11.0217 18.5918 11.2262 18.633 11.4425C18.6069 11.461 18.5833 11.4779 18.5615 11.4922H18.5438L18.5177 11.5023L18.5059 11.5082C18.4891 11.5174 18.4403 11.5688 18.426 11.5603L18.4571 11.5326L18.4403 11.5427V11.5275L18.4537 11.5199C18.4436 11.5124 18.4159 11.5385 18.4033 11.5469L18.3772 11.5637C18.3662 11.5704 18.3671 11.5755 18.362 11.5814L18.3469 11.5772C18.3408 11.5746 18.3354 11.5708 18.3309 11.566C18.3264 11.5613 18.323 11.5556 18.3208 11.5494C18.314 11.5256 18.3126 11.5006 18.3166 11.4762C18.3341 11.3626 18.3943 11.2599 18.4849 11.1892C18.4849 11.1892 18.0641 11.4955 18.0759 11.727L18.0237 11.6975C17.9168 11.6815 17.7712 11.7977 17.6172 11.9559C17.6106 11.8867 17.6106 11.8171 17.6172 11.748C17.7198 11.6646 17.8294 11.5899 17.9446 11.525C17.9784 11.5048 18.0103 11.4814 18.0397 11.4551C18.1629 11.3665 18.2929 11.2877 18.4285 11.2195C18.2072 10.8543 18.0574 10.9595 18.0574 10.9595C18.0574 10.9595 17.8335 11.1025 17.8049 11.111C17.7763 11.1194 17.7645 11.1808 17.7611 11.2044C17.7311 11.2446 17.6957 11.2806 17.6559 11.3112C17.6623 11.1275 17.6851 10.9447 17.7241 10.7651C17.6833 10.663 17.6054 10.58 17.5061 10.5328C17.4413 10.5042 17.3092 10.4689 17.2537 10.5278C17.2242 10.5581 17.2436 10.5833 17.2048 10.6666C17.1817 10.712 17.1534 10.7546 17.1207 10.7937C17.1311 10.7838 17.1404 10.7728 17.1485 10.7609C17.1788 10.7146 17.3942 10.6321 17.3942 10.6321C17.4506 10.7954 17.3563 10.9687 17.342 11.2498C17.3353 11.3912 17.2856 11.6958 17.2646 11.8709L17.2032 11.9331H17.2074L17.2452 11.9071C17.2503 11.8977 17.2575 11.8896 17.2663 11.8835V11.9012L17.2032 11.9458L16.928 12.2243C16.9131 12.2278 16.8984 12.2323 16.8842 12.2378C16.897 12.4868 16.8749 12.7363 16.8186 12.9792C16.8005 13.0376 16.8005 13.1001 16.8186 13.1584C16.8349 13.2097 16.8652 13.2554 16.9061 13.2903C16.947 13.3252 16.9968 13.3481 17.05 13.3562C17.1001 13.361 17.1505 13.3517 17.1956 13.3293C17.2133 13.237 17.2184 13.1427 17.2107 13.049C17.2527 13.0532 17.295 13.0532 17.337 13.049C17.337 13.049 17.7662 12.8294 17.8091 12.7865C17.8493 12.7676 17.8935 12.7589 17.9379 12.7612L17.9059 12.7932C17.8897 12.8064 17.8745 12.8207 17.8604 12.8361C17.8428 12.8555 17.8125 12.8639 17.8125 12.8816C17.7872 12.8917 17.7855 12.9135 17.7586 12.9304C17.7317 12.9472 17.714 12.9741 17.6972 12.9783C17.6972 12.9826 17.6972 12.9884 17.6904 12.9893L17.6492 13.0229L17.6433 13.0272L17.5187 13.1096L17.5044 13.1189V13.1248L17.5499 13.0987V13.1079L17.4279 13.198L17.3437 13.2535V13.2594L17.39 13.2359L17.5263 13.1517V13.1576L17.5095 13.1685L17.2839 13.3057L17.2696 13.3251L17.528 13.1702L17.645 13.0936V13.0987L17.6273 13.1105L17.5684 13.1483C17.5291 13.184 17.4862 13.2156 17.4405 13.2426L17.4026 13.2678C17.3981 13.2712 17.3929 13.2735 17.3875 13.2746V13.2796L17.4792 13.2232L17.5263 13.1929C17.8242 12.9767 18.0313 12.8328 18.1323 12.7722C18.1546 12.7764 18.1766 12.7826 18.1979 12.7907C18.2248 12.8025 18.2577 12.7469 18.2577 12.7469C18.2534 12.7008 18.2461 12.6549 18.2358 12.6097C18.2223 12.5416 18.107 12.4414 17.9993 12.3859C18.0541 12.3106 18.1189 12.2433 18.192 12.1856L18.1828 12.1915L18.1727 12.2033L18.1474 12.2218L18.1525 12.2268C18.176 12.2024 18.2038 12.1806 18.2324 12.1528L18.2433 12.1444H18.2484L18.2534 12.1503C18.2467 12.1553 18.2534 12.1646 18.2442 12.1747C18.2223 12.1965 18.203 12.2151 18.1853 12.2336H18.1971L18.2122 12.2268H18.2189C18.2232 12.2268 18.2307 12.2125 18.24 12.2033C18.2492 12.194 18.2585 12.1856 18.2652 12.1898L18.2476 12.2109L18.2585 12.2041L18.2652 12.2167L18.2568 12.2226C18.2661 12.2294 18.2812 12.21 18.2905 12.2024L18.3073 12.189C18.3157 12.1814 18.3073 12.1763 18.3183 12.1696C18.3183 12.1696 18.3182 12.1696 18.3275 12.1696V12.1814C18.3359 12.1671 18.3435 12.1519 18.3519 12.136V12.1275C18.3586 12.1138 18.3629 12.099 18.3645 12.0838C18.3687 12.0653 18.3713 12.0476 18.3788 12.0451C18.3797 12.0322 18.3797 12.0192 18.3788 12.0064V12.0122H18.3671C18.3671 12.0223 18.3671 12.0316 18.3671 12.0409H18.3578V12.0291C18.3643 12.0211 18.3684 12.0115 18.3696 12.0013C18.3696 11.9803 18.3342 11.9407 18.2854 11.8978C18.3199 11.8978 18.3543 11.8944 18.3881 11.8877L18.4192 11.8683C18.4284 11.866 18.4373 11.8632 18.4462 11.8599C18.4505 11.8561 18.4537 11.8511 18.4554 11.8456C18.5211 11.8044 18.5985 11.7547 18.6818 11.7C18.7247 11.9071 18.7744 12.1208 18.8308 12.316C18.8281 12.3181 18.8259 12.3208 18.8245 12.3239C18.823 12.327 18.8223 12.3303 18.8224 12.3337C18.7853 12.3497 18.7853 12.3766 18.7483 12.4019C18.7113 12.4271 18.6869 12.4608 18.6641 12.4675C18.6641 12.4734 18.6641 12.4801 18.6557 12.4818L18.5977 12.529L18.5892 12.534C18.5345 12.5769 18.479 12.6182 18.4209 12.6611L18.4007 12.6737V12.6804L18.4655 12.6443L18.4605 12.656L18.2854 12.7772L18.1626 12.8504L18.1668 12.8572L18.2332 12.8252C18.2997 12.789 18.3654 12.7511 18.431 12.7133L18.4352 12.72L18.41 12.7351C18.3011 12.7985 18.192 12.8597 18.0826 12.9186L18.0616 12.943C18.1878 12.8757 18.3132 12.8061 18.4378 12.7343C18.4941 12.6998 18.5497 12.6644 18.6061 12.6283L18.569 12.6569L18.4992 12.7006C18.442 12.7484 18.3806 12.7909 18.3157 12.8277L18.2602 12.8605C18.2536 12.8657 18.2458 12.8689 18.2375 12.8698V12.8765L18.3309 12.8235C18.2375 12.8841 18.1516 12.9337 18.0784 12.975C17.7157 13.1702 17.3008 13.3116 17.3067 13.3276C17.3126 13.3436 17.3521 13.32 17.358 13.3192C17.7308 13.235 18.0675 13.3032 18.5118 13.1046C18.6853 13.023 18.8454 12.9154 18.9865 12.7856C19.0309 12.8968 19.0856 13.0035 19.1497 13.1046C19.3669 13.4303 19.7792 13.8906 20.1066 13.819C20.2 13.7989 20.3111 13.7938 20.4719 13.7728C20.4315 13.7071 20.3877 13.6331 20.3372 13.5514M17.8857 11.2641C17.9442 11.2652 18.0027 11.2697 18.0607 11.2776L17.9252 11.4408C17.9008 11.4871 17.7376 11.5704 17.6256 11.6235C17.6307 11.5629 17.6374 11.4981 17.6441 11.4324C17.6837 11.3668 17.7679 11.2574 17.8857 11.2641ZM17.087 12.1772C17.0961 12.1673 17.1042 12.1566 17.1114 12.1452C17.1207 12.1309 17.1426 12.1259 17.1367 12.1116C17.1552 12.1057 17.1493 12.0871 17.1661 12.0754C17.183 12.0636 17.1897 12.0434 17.2032 12.0417V12.0333L17.2276 12.0089L17.2503 11.9862C17.2503 11.9954 17.2503 12.0005 17.2553 11.9996C17.2831 11.9937 17.3479 12.1679 17.3816 12.2235C17.3092 12.316 17.2427 12.4078 17.1897 12.4827C17.1856 12.4834 17.1815 12.4831 17.1776 12.4819C17.1736 12.4808 17.17 12.4787 17.167 12.4759V12.4827C17.1569 12.4743 17.1501 12.4717 17.151 12.4776L17.1341 12.4734V12.4692H17.1291L17.1358 12.4743H17.1299C17.1173 12.4633 17.1165 12.4743 17.1055 12.4743H17.098C17.0677 12.3581 17.0365 12.3001 17.0298 12.2731C17.0298 12.2689 17.0298 12.2369 17.0298 12.2327H17.034C17.051 12.2127 17.0668 12.1916 17.0811 12.1696M17.2267 12.7494C17.1998 12.7494 17.1619 12.6493 17.1468 12.6055C17.2924 12.4633 17.5533 12.1974 17.6585 12.1511L17.6408 12.1713H17.6366L17.5709 12.242L17.5608 12.2479L17.5676 12.2546L17.6012 12.2378V12.247L17.5263 12.3118L17.4691 12.3497L17.4758 12.3564L17.5129 12.343L17.6105 12.2891L17.6172 12.295L17.6054 12.3026L17.4447 12.3926V12.4095L17.6307 12.3085L17.7106 12.2563H17.7157L17.8268 12.1326C17.8281 12.1337 17.8292 12.1351 17.8299 12.1367C17.8306 12.1383 17.831 12.1401 17.831 12.1418C17.8308 12.1567 17.8248 12.171 17.8141 12.1814C17.7653 12.2117 17.6601 12.4339 17.6063 12.5508C17.4784 12.6518 17.3277 12.7503 17.2326 12.7486M19.3955 11.2195L19.3669 11.265L19.3593 11.2717L19.3643 11.2767L19.3374 11.3331L19.2953 11.3727L19.3012 11.3777L19.2297 11.4434L19.4064 11.3079L19.3972 11.3163L19.18 11.4947V11.5107C19.2272 11.4745 19.3711 11.3567 19.4165 11.3197L19.4796 11.2675C19.4796 11.2675 19.4014 11.36 19.3854 11.3752L19.2684 11.4745C19.2633 11.4787 19.2633 11.4787 19.2583 11.4787L19.2633 11.4838L19.4098 11.3617L19.4174 11.355C19.4174 11.3634 19.4174 11.3853 19.4115 11.3962C19.4056 11.4072 19.4047 11.4114 19.4064 11.419C19.4081 11.4265 19.3896 11.4282 19.4005 11.4417C19.3871 11.4417 19.4005 11.4602 19.3913 11.4669C19.382 11.4737 19.3845 11.4888 19.3744 11.4871C19.3643 11.4854 19.3812 11.4955 19.3744 11.4947L19.3643 11.5098C19.3542 11.5233 19.3441 11.5368 19.3324 11.5502H19.3273L19.3315 11.5561L19.35 11.5502V11.557L19.3096 11.5915L19.2768 11.6075L19.281 11.6134H19.3021C19.3206 11.6066 19.3399 11.5999 19.3584 11.5915L19.3627 11.5974L19.3559 11.6016C19.3257 11.6144 19.2948 11.6256 19.2633 11.6352V11.6479C19.2996 11.6385 19.3353 11.627 19.3702 11.6134L19.4148 11.5864L19.4199 11.5915L19.4131 11.5965L19.3904 11.61C19.3904 11.6226 19.3584 11.642 19.345 11.6479L19.3298 11.6563C19.3298 11.6563 19.3298 11.6563 19.3223 11.6563V11.6622L19.361 11.6462L19.3803 11.6352C19.4022 11.6226 19.4232 11.6091 19.4443 11.5957V11.6024H19.4392L19.4283 11.6142L19.398 11.6327L19.4022 11.6386C19.4148 11.6293 19.4275 11.6184 19.4392 11.6083C19.4005 11.6807 19.3551 11.7547 19.3096 11.8313C19.2642 11.9079 19.2196 11.9676 19.1741 12.0299C19.1604 12.0375 19.1472 12.0459 19.1346 12.0552C19.0778 11.8704 19.0323 11.6824 18.9982 11.4922L19.4014 11.2229" fill="white"/>
<path fill-rule="evenodd" clip-rule="evenodd" d="M17.1964 11.9344L17.1972 11.9359L17.2025 11.9306L17.1964 11.9344Z" fill="white"/>
<path fill-rule="evenodd" clip-rule="evenodd" d="M17.6677 12.2975C17.6677 12.3152 17.6105 12.3514 17.5886 12.3657L17.5625 12.3825C17.5605 12.3837 17.5582 12.3843 17.5558 12.3843C17.5534 12.3843 17.5511 12.3837 17.5491 12.3825L17.5558 12.3893L17.6214 12.3514L17.6526 12.3312L17.7123 12.2647H17.7073L17.6677 12.2975Z" fill="white"/>
<path fill-rule="evenodd" clip-rule="evenodd" d="M17.7184 12.2637L17.7169 12.2621L17.7123 12.2675L17.7184 12.2637Z" fill="white"/>
<path fill-rule="evenodd" clip-rule="evenodd" d="M19.2171 10.5277L19.1573 10.5782H19.1489L19.1531 10.5841L19.18 10.5749V10.5824C19.159 10.5976 19.138 10.6127 19.1169 10.6296C19.0959 10.6464 19.0858 10.6481 19.0706 10.6573L19.0748 10.6632L19.1026 10.6548C19.1287 10.6422 19.154 10.6304 19.18 10.6195L19.1843 10.6262L19.1742 10.6312C19.1312 10.6494 19.0896 10.6705 19.0496 10.6944V10.7095C19.0953 10.6824 19.1432 10.659 19.1927 10.6397C19.2137 10.6287 19.2347 10.6178 19.2566 10.6077V10.6144H19.2474L19.2154 10.6304C19.2154 10.6439 19.1674 10.6666 19.1514 10.6767L19.1312 10.6885C19.1298 10.6893 19.1282 10.6897 19.1266 10.6897C19.125 10.6897 19.1234 10.6893 19.122 10.6885V10.6944L19.1708 10.67L19.196 10.6565C19.2246 10.6413 19.2541 10.6279 19.2802 10.6136V10.6195L19.2659 10.6262L19.2491 10.6388L19.2078 10.659L19.212 10.6649C19.2533 10.6388 19.2962 10.6136 19.3408 10.5875L19.3576 10.5799H19.3643V10.5858C19.3542 10.5908 19.3568 10.6018 19.3442 10.6119L19.2482 10.6725H19.2625L19.2852 10.6657H19.2945C19.308 10.659 19.3509 10.6195 19.3627 10.6304L19.3357 10.6506L19.3509 10.6439V10.659L19.3399 10.6641C19.3484 10.6725 19.3728 10.6531 19.3837 10.6481L19.4073 10.6371C19.4182 10.6321 19.4148 10.6254 19.4249 10.6211H19.43C19.435 10.6211 19.43 10.6211 19.4384 10.6254L19.4325 10.6363L19.462 10.6102C19.5461 10.6439 19.6084 10.6683 19.6236 10.6725C19.6799 10.6876 19.8163 10.5572 19.7919 10.5471C19.7509 10.4943 19.7222 10.4331 19.7077 10.3678C19.7077 10.3325 19.499 10.1995 19.4889 10.2206C19.4788 10.2416 19.0908 10.2862 19.0344 10.2913C18.9804 10.3085 18.9308 10.3372 18.8889 10.3754L19.2188 10.5117L19.2171 10.5277Z" fill="white"/>
<path fill-rule="evenodd" clip-rule="evenodd" d="M14.1129 11.0933L14.1794 11.0504C14.1415 11.0722 14.1045 11.095 14.0674 11.1177L14.0876 11.1067L14.1129 11.0933Z" fill="#231815"/>
<path fill-rule="evenodd" clip-rule="evenodd" d="M16.2488 13.028C16.2438 13.0053 16.2556 12.9783 16.2412 12.9691V12.9649C16.245 12.954 16.245 12.9421 16.2412 12.9312C16.2412 12.9203 16.2412 12.9093 16.2412 12.8984C16.2412 12.8731 16.2328 12.8445 16.2412 12.8294C16.2497 12.8142 16.2311 12.8252 16.2354 12.8193V12.7696V12.7629H16.2396C16.2396 12.7169 16.2396 12.6706 16.2396 12.624V12.6072H16.2328L16.2227 12.656L16.216 12.6484L16.2261 12.5071L16.2412 12.4128H16.2345L16.2194 12.4599C16.2101 12.5037 16.2017 12.5483 16.1933 12.5921C16.1933 12.5845 16.1933 12.5769 16.1891 12.5693C16.2034 12.4936 16.2185 12.4179 16.2354 12.343L16.2286 12.3219C16.2118 12.3951 16.1958 12.4692 16.1815 12.5433C16.1773 12.5214 16.1739 12.4995 16.1697 12.4776V12.4574C16.1698 12.4516 16.1718 12.4459 16.1756 12.4414H16.1722L16.168 12.4658C16.1091 12.1292 16.0435 11.8195 16.0435 11.8195L15.9517 11.2944C15.9517 11.2944 15.9517 11.5595 15.9164 11.8658H15.9113L15.8996 11.9214C15.892 11.9786 15.8836 12.0358 15.8743 12.0897H15.8676V12.0678C15.8811 11.9735 15.8937 11.8793 15.9055 11.7842L15.8962 11.7606C15.8836 11.8683 15.8684 11.9769 15.8516 12.0838C15.8457 12.1334 15.8398 12.1831 15.8331 12.2327H15.8255V12.21L15.8348 12.1359C15.8322 12.0797 15.8347 12.0234 15.8423 11.9676L15.8474 11.9188C15.8469 11.9125 15.8487 11.9062 15.8524 11.9012H15.8457L15.8306 12.0156L15.8238 12.0754C15.8162 12.1444 15.8078 12.2142 15.7977 12.2832H15.791L15.7952 12.2504V12.2058L15.807 12.109H15.8003C15.7927 12.2159 15.7826 12.3228 15.7708 12.4288L15.7649 12.4658V12.4801H15.7582C15.7582 12.4583 15.7523 12.449 15.754 12.4153C15.7615 12.3312 15.7683 12.2546 15.7733 12.1738L15.7632 12.1991L15.7531 12.2462V12.2681C15.7489 12.3017 15.7531 12.4221 15.7338 12.4305V12.3598L15.7287 12.3926L15.7161 12.38L15.7203 12.3539C15.7085 12.3598 15.706 12.4229 15.7018 12.449L15.6934 12.4995C15.6892 12.5256 15.6934 12.5264 15.6934 12.5483V12.5592C15.6934 12.5702 15.6934 12.5668 15.685 12.5693V12.5458L15.6799 12.6535L15.685 12.6661C15.6844 12.6754 15.6844 12.6846 15.685 12.6939C15.6562 12.7336 15.6155 12.7631 15.5688 12.778C15.3417 12.8347 15.1067 12.8524 14.8737 12.8302C14.9275 12.7553 14.9772 12.6779 15.0243 12.5988C15.0386 12.5735 15.0513 12.5475 15.0647 12.5222C15.0782 12.497 15.0908 12.47 15.1026 12.444H15.1093C15.1093 12.4524 15.1017 12.4599 15.0975 12.4684C15.0849 12.4936 15.0723 12.5205 15.0588 12.5458C15.0381 12.6079 15.0099 12.6673 14.9747 12.7225L14.9452 12.7713C14.9385 12.7823 14.9385 12.7823 14.9309 12.7873L14.9368 12.7915C14.9612 12.7536 14.9856 12.7158 15.0092 12.6771L15.0437 12.6165C15.0824 12.5449 15.1186 12.4709 15.1522 12.3968H15.159L15.1421 12.433C15.1363 12.4498 15.1295 12.4658 15.1228 12.4827C15.1068 12.5163 15.0891 12.5508 15.0715 12.5845H15.0773C15.1323 12.4704 15.1807 12.3532 15.2221 12.2336L15.2372 12.1923L15.244 12.1763H15.2507C15.2406 12.2007 15.2507 12.2134 15.2372 12.2521C15.2061 12.343 15.1716 12.433 15.1329 12.5214L15.1531 12.497C15.1632 12.4801 15.1724 12.4633 15.1809 12.4456L15.1926 12.4221C15.2011 12.4036 15.2154 12.3598 15.2297 12.3194C15.2361 12.2907 15.2481 12.2635 15.265 12.2395C15.2574 12.2664 15.249 12.2933 15.2406 12.3236L15.2558 12.2866L15.2633 12.3051L15.2515 12.3337C15.2642 12.3337 15.2869 12.2563 15.2978 12.226L15.3197 12.1671C15.3298 12.1376 15.3197 12.1351 15.3323 12.109L15.3365 12.0964C15.3408 12.0838 15.3365 12.088 15.3475 12.0863C15.3584 12.0846 15.3475 12.1048 15.3475 12.1141C15.3559 12.0711 15.3652 12.0299 15.3727 11.9845V11.9693C15.3797 11.9323 15.3842 11.895 15.3862 11.8574C15.386 11.8239 15.3903 11.7905 15.3988 11.7581V11.7429C15.4067 11.725 15.4132 11.7064 15.4182 11.6874C15.4384 11.6032 15.334 11.4964 15.2271 11.4131C15.2457 11.3929 15.2953 11.3617 15.3256 11.334C15.3385 11.3214 15.3526 11.3101 15.3677 11.3003C15.373 11.2962 15.3786 11.2925 15.3845 11.2893H15.4173C15.4524 11.2878 15.4874 11.2833 15.5217 11.2759V11.2826H15.5049L15.4838 11.2902C15.4674 11.2927 15.4508 11.2944 15.4342 11.2952V11.3028C15.4876 11.2937 15.5399 11.2784 15.5899 11.2574L15.6075 11.2515H15.6143V11.2582C15.6042 11.2582 15.6042 11.2725 15.5899 11.2801C15.5515 11.2971 15.5118 11.3109 15.4712 11.3213L15.4872 11.3255H15.5141H15.5259C15.5343 11.3255 15.5528 11.3146 15.5697 11.307C15.5865 11.2994 15.6016 11.2944 15.6075 11.3003L15.5747 11.3171L15.5915 11.3121V11.3272H15.5781C15.5857 11.3365 15.6151 11.3205 15.6277 11.3163L15.653 11.3087C15.6656 11.3045 15.6622 11.2978 15.6732 11.2944H15.6782C15.6841 11.2944 15.6824 11.2944 15.6866 11.2994L15.6791 11.3095L15.7245 11.2784V11.27C15.7405 11.2641 15.7809 11.2102 15.7952 11.2153L15.8213 11.185H15.8171C15.8582 11.1528 15.8894 11.1096 15.9071 11.0604C15.9433 10.9553 15.4148 10.5942 15.4148 10.5942L15.3433 10.5841C15.3351 10.5832 15.3269 10.5844 15.3194 10.5877C15.3118 10.5909 15.3053 10.5961 15.3004 10.6026C15.2768 10.6372 15.2524 10.6717 15.228 10.7053L14.9553 10.8366L14.8712 10.877L14.8181 10.8879C14.7524 10.8825 14.6863 10.895 14.6271 10.9241C14.4557 11.0258 14.2793 11.1188 14.0986 11.2027C14.1236 11.1759 14.1518 11.1524 14.1827 11.1328C14.2189 11.1101 14.2366 11.095 14.2736 11.0748C14.3285 11.0399 14.3813 11.002 14.4318 10.9611C14.4781 10.9342 14.5354 10.9014 14.5791 10.8703C14.6539 10.8252 14.7308 10.7839 14.8097 10.7466C14.9049 10.7252 14.9888 10.6695 15.0454 10.59C15.1068 10.5176 14.7929 10.3081 14.7929 10.3081C14.3788 10.5202 14.2316 10.4318 14.2316 10.4318C14.3384 10.5669 14.4789 10.6717 14.6389 10.7356L14.3864 10.9494L14.3477 10.9805C14.309 11.0083 14.2585 11.0411 14.2391 11.0529C14.2198 11.0647 14.1903 11.0857 14.1625 11.1025C14.1402 11.1151 14.1172 11.1263 14.0935 11.1362L13.9984 11.1976L14.0498 11.164C14.0329 11.1741 14.0094 11.1867 13.9976 11.1959C13.9645 11.1386 13.9141 11.0932 13.8537 11.0663L13.8655 10.6767C13.8655 10.6767 13.6862 10.3325 13.5356 10.3451C13.5008 10.3507 13.468 10.3652 13.4405 10.3872C13.437 10.3884 13.434 10.3908 13.4321 10.3939C13.3067 10.4874 13.1796 10.6784 13.2595 10.6397C13.2595 10.6456 13.2553 10.6523 13.2536 10.6573C13.2493 10.6669 13.244 10.6759 13.2376 10.6843H13.2435C13.249 10.6815 13.254 10.6781 13.2587 10.6742L13.2764 10.6489C13.2819 10.6394 13.2887 10.6306 13.2966 10.6228H13.3008L13.2957 10.6296C13.2899 10.6365 13.2846 10.6438 13.2797 10.6515L13.2654 10.6725C13.2586 10.6842 13.2487 10.6938 13.2368 10.7003C13.2368 10.7003 13.2368 10.707 13.2368 10.7112C13.2514 10.7037 13.2638 10.6927 13.273 10.6792C13.2833 10.6624 13.2951 10.6467 13.3083 10.6321L13.3193 10.6203H13.3319C13.33 10.6199 13.328 10.6199 13.326 10.6203C13.3251 10.6286 13.3219 10.6365 13.3168 10.643C13.3128 10.652 13.3083 10.6607 13.3033 10.6691L13.2957 10.6843C13.2957 10.6843 13.2957 10.6843 13.289 10.6893H13.2957C13.3041 10.6775 13.3109 10.6641 13.3176 10.6548L13.3277 10.6405L13.3395 10.6287L13.3572 10.6178H13.3656H13.3799L13.3706 10.622C13.3679 10.6243 13.3654 10.6268 13.363 10.6296C13.3574 10.6316 13.3523 10.6348 13.3479 10.6388L13.3428 10.643H13.3487V10.638L13.3614 10.6271L13.3689 10.622L13.3773 10.617C13.3873 10.6185 13.397 10.6216 13.406 10.6262C13.3924 10.6331 13.3797 10.6415 13.3681 10.6515H13.3773H13.3858H13.3908L13.4119 10.6363H13.4194V10.6414H13.4127H13.4203L13.4253 10.6506H13.4177C13.4193 10.6519 13.4212 10.6526 13.4232 10.6526C13.4252 10.6526 13.4272 10.6519 13.4287 10.6506C13.4819 10.7987 13.5131 10.9538 13.5213 11.1109C13.4161 11.1724 13.3041 11.2304 13.2031 11.2793L13.2124 11.2633L13.22 11.2548H13.2149L13.1888 11.2776V11.27L13.2469 11.1909L13.2907 11.1429L13.2856 11.1387L13.257 11.1589L13.1813 11.2313L13.1762 11.2262L13.1846 11.2161L13.3092 11.0966V11.0798L13.1653 11.2153L13.1038 11.2818L13.0988 11.2776L13.1072 11.2675L13.1383 11.2338C13.1383 11.217 13.1821 11.1707 13.1989 11.1497L13.2183 11.1286C13.2233 11.1236 13.2233 11.1236 13.2292 11.1227L13.2233 11.1177L13.1737 11.1673L13.1493 11.1934L13.0651 11.2868L13.0592 11.2826L13.0735 11.2675L13.0887 11.2447L13.1282 11.2018H13.1232L13.0028 11.3533L12.9877 11.3701L12.981 11.3769H12.9759C12.9852 11.3668 12.9801 11.3567 12.9911 11.339L13.0794 11.222L13.0626 11.2296L13.0407 11.249L13.0315 11.2591C13.0172 11.2734 12.9818 11.3382 12.9667 11.334L12.9902 11.2978L12.9759 11.3121L12.97 11.2986L12.981 11.2868C12.9692 11.2868 12.949 11.3163 12.938 11.3281L12.917 11.3508C12.9061 11.3626 12.9111 11.3676 12.9027 11.3769L12.8976 11.3819C12.8934 11.387 12.8976 11.3819 12.8875 11.3819L12.8918 11.3676L12.8581 11.4248V11.4341C12.8525 11.4419 12.848 11.4504 12.8446 11.4593C12.8285 11.4766 12.818 11.4983 12.8143 11.5216C12.8119 11.5246 12.8087 11.527 12.8051 11.5283L12.7874 11.573L12.7941 11.5662L12.8051 11.5704L12.8152 11.5502C12.8173 11.5556 12.8202 11.5607 12.8236 11.5654L12.8177 11.5721L12.8286 11.5864H12.8244L12.8371 11.594L12.8446 11.5864V11.5948H12.8547L12.8657 11.6041H12.8716L12.8564 11.6209L12.8303 11.6285L12.8404 11.6436L12.8505 11.6487L12.8623 11.6411L12.8707 11.6478L12.8749 11.6428C12.896 11.6571 12.9002 11.631 12.9246 11.6512V11.642C12.938 11.6537 12.9456 11.6563 12.9439 11.647L12.9641 11.6512V11.6588L12.97 11.6521L12.9616 11.6453H12.9692C12.9843 11.6605 12.9843 11.6453 12.9995 11.6378L13.0096 11.6335C13.0569 11.6413 13.1047 11.6461 13.1526 11.6478C13.1526 11.6478 13.3454 11.5746 13.5448 11.4854C13.5448 11.5485 13.5448 11.6117 13.5398 11.6731L13.4447 11.7463L13.3891 11.7926C13.3252 11.8473 13.2612 11.9037 13.2015 11.9651L13.1964 11.9601L13.2259 11.9306L13.2637 11.8902C13.2923 11.8624 13.3218 11.8364 13.3521 11.8111L13.3471 11.8052C13.2489 11.894 13.1596 11.9921 13.0803 12.0981L13.0525 12.1343L13.0416 12.1486L13.0357 12.1444C13.0525 12.1225 13.0491 12.1082 13.0727 12.0728C13.1331 11.9914 13.1997 11.9149 13.2722 11.8439L13.2435 11.8608C13.2275 11.8734 13.2124 11.8868 13.1973 11.9003L13.1771 11.9205C13.1619 11.9348 13.1316 11.9735 13.1038 12.0089C13.0761 12.0442 13.0517 12.0779 13.0416 12.0787C13.0584 12.0535 13.0761 12.0282 13.0937 12.0038C13.0845 12.0139 13.0752 12.0257 13.066 12.0366V12.0156L13.0887 11.9904C13.0735 11.9904 13.0256 12.0585 13.0045 12.0846C12.9835 12.1107 12.9784 12.1191 12.965 12.1376C12.9515 12.1561 12.9515 12.1688 12.9355 12.1906L12.9279 12.2024C12.9195 12.2134 12.9229 12.2092 12.9145 12.2092L12.9246 12.1822L12.8606 12.2984V12.3135C12.8321 12.3799 12.7992 12.4442 12.7622 12.5062L12.7302 12.5348C12.7302 12.5348 12.6974 12.7031 12.8017 12.7351C12.9116 12.8514 13.0274 12.9621 13.1484 13.0667C13.2562 13.1593 13.3614 13.2409 13.4615 13.3133C13.3942 13.384 13.3194 13.4472 13.2385 13.5018C13.2385 13.5018 13.7712 13.4109 14.0674 13.0928C14.2888 12.8563 14.41 12.2992 14.4167 11.9811C14.4212 11.9777 14.4244 11.973 14.426 11.9676C14.431 11.9601 14.4428 11.9676 14.4394 11.9516C14.4495 11.9575 14.4453 11.9373 14.4537 11.9357C14.4621 11.934 14.4655 11.9197 14.4722 11.9256C14.479 11.9314 14.4722 11.9155 14.4722 11.918L14.484 11.9087L14.5168 11.8835V11.8767H14.5017L14.548 11.8515L14.5623 11.8473C14.6458 11.8018 14.726 11.7503 14.8021 11.6933C14.856 12.1258 14.4655 12.683 14.3115 12.8302C14.2293 12.8982 14.1644 12.9847 14.1221 13.0827L14.3191 13.272C14.3529 13.293 14.3914 13.3052 14.4311 13.3074C14.4708 13.3096 14.5104 13.3018 14.5463 13.2847H14.5522C14.5802 13.2678 14.6032 13.2436 14.6187 13.2148C15.446 13.1626 15.7573 13.426 15.7573 13.426C16.1672 13.5152 16.1924 13.3974 16.2025 13.3023H16.2118L16.2059 13.2922C16.2236 13.2922 16.2303 13.2922 16.2236 13.2796L16.2421 13.2678V13.2771V13.2645H16.2311L16.2354 13.2552C16.2564 13.2594 16.2497 13.2459 16.2547 13.2199C16.2606 13.2042 16.2654 13.1882 16.269 13.1719C16.269 13.1492 16.2522 13.0962 16.248 13.06C16.2465 13.0409 16.2434 13.0221 16.2387 13.0036M14.8863 12.7208C14.9225 12.6661 14.9578 12.6106 14.9915 12.5525H14.9974L14.9856 12.5752C14.941 12.6501 14.8947 12.7217 14.8451 12.7924H14.8375C14.8434 12.7797 14.8501 12.7671 14.8568 12.7545L14.8863 12.7208ZM15.4577 11.2447L15.4215 11.249C15.411 11.2564 15.3983 11.2602 15.3854 11.2599H15.3753C15.3913 11.2525 15.4079 11.2463 15.4249 11.2414L15.467 11.2355V11.2422L15.4577 11.2447ZM14.75 10.9401C14.6296 10.9973 14.4975 11.0588 14.3468 11.1269C14.2896 11.153 14.2248 11.1791 14.1524 11.2111C14.2189 11.1757 14.3107 11.1269 14.4049 11.084C14.5202 11.0302 14.6523 10.9805 14.7508 10.9443M13.8798 12.7427L13.8326 12.8033L13.7897 12.8529V12.8361C13.8293 12.7865 13.8739 12.7276 13.8974 12.7015L13.8798 12.7427ZM13.5431 11.7699L13.4135 11.8658L13.4093 11.8608L13.4295 11.8431C13.4674 11.8128 13.5061 11.7833 13.5448 11.7539V11.7657M13.788 12.9085L13.8158 12.8757C13.8074 12.8917 13.7981 12.9076 13.7889 12.9228L13.788 12.9085ZM13.7998 12.8866L13.788 12.9009V12.863L13.8512 12.7924L13.8781 12.7562C13.8638 12.7856 13.8486 12.8142 13.8343 12.8403L13.799 12.8858M14.0885 12.1679C14.0775 12.178 14.0573 12.1999 14.0573 12.1999C14.0447 12.2201 14.0329 12.2765 14.0178 12.3118C14.0097 12.3295 14.0029 12.3478 13.9976 12.3665C13.99 12.3909 13.9639 12.4094 13.9749 12.4254C13.953 12.4431 13.9648 12.4641 13.9471 12.4886C13.9294 12.513 13.9252 12.5441 13.9092 12.5534C13.9092 12.5584 13.916 12.5626 13.9092 12.566L13.8848 12.6114L13.8806 12.6165L13.8082 12.741L13.7981 12.7545L13.8032 12.7587L13.8377 12.72V12.7301L13.7914 12.7982L13.8242 11.7042C13.8594 11.715 13.8961 11.7198 13.9328 11.7185C13.9558 11.7103 13.9768 11.697 13.9942 11.6798C14.0536 11.7366 14.0959 11.8089 14.1163 11.8885L14.1289 11.9786C14.1171 12.0442 14.1036 12.1073 14.0893 12.1688M14.0843 11.1589L13.9917 11.2195L14.0843 11.1623M13.2865 11.95C13.3083 11.9289 13.3311 11.9087 13.3538 11.8894C13.3981 11.838 13.4478 11.7915 13.5019 11.7505L13.5473 11.7135C13.5473 11.7244 13.5473 11.7354 13.5473 11.7463L13.4076 11.8532C13.3614 11.8919 13.3168 11.9314 13.273 11.9735V11.9685L13.2865 11.95ZM13.3024 12.0585L13.3083 12.0518C13.3471 12.0047 13.3883 11.9601 13.4321 11.9146L13.4489 11.9003L13.4447 11.8953L13.3917 11.9357V11.9247C13.4371 11.8801 13.4851 11.8355 13.5314 11.7926L13.5372 11.7884C13.5372 11.8103 13.5372 11.833 13.5314 11.854L13.2831 12.0737L13.2974 12.056M13.3201 12.7831C13.2612 12.8025 13.2107 12.7562 13.1022 12.7233H13.1106C13.1215 12.7233 13.1173 12.7233 13.1181 12.7183C13.1187 12.7164 13.1187 12.7143 13.1181 12.7124C13.1181 12.7074 13.1123 12.7124 13.1123 12.7048C13.1123 12.7048 13.1123 12.7048 13.119 12.7006H13.1257L13.1106 12.6813H13.1038C13.1038 12.6771 13.0921 12.6703 13.0811 12.6628C13.0892 12.6633 13.0974 12.6633 13.1055 12.6628C13.1148 12.6577 13.1232 12.6291 13.135 12.6148C13.1468 12.6005 13.1493 12.5996 13.151 12.5912C13.1526 12.5828 13.1762 12.582 13.1695 12.5651C13.1855 12.5651 13.1779 12.5449 13.1914 12.5382C13.2048 12.5315 13.209 12.513 13.22 12.5138C13.2309 12.5146 13.2158 12.5045 13.22 12.5054L13.2385 12.4869C13.2553 12.4692 13.273 12.4515 13.289 12.4313L13.2957 12.4263L13.2907 12.4212L13.2671 12.4339V12.4296C13.2755 12.4204 13.2848 12.4103 13.2923 12.4002C13.2999 12.3901 13.3092 12.3817 13.3176 12.3716C13.3303 12.3596 13.3424 12.3469 13.3538 12.3337H13.3496C13.4135 12.2546 13.4649 12.1864 13.4901 12.1519C13.4741 12.2546 13.459 12.3329 13.4506 12.3716C13.4102 12.5635 13.4152 12.757 13.3151 12.7924M14.3426 11.7657C14.2324 11.6739 14.0102 11.6882 13.985 11.6899C14.004 11.6717 14.0202 11.6507 14.0329 11.6277C14.0826 11.5435 14.9881 11.1454 15.2541 11.1909C15.2516 11.2051 15.2482 11.2192 15.244 11.233C15.2353 11.2704 15.218 11.3052 15.1935 11.3348C15.1766 11.3522 15.1558 11.3655 15.1329 11.3735L15.0916 11.3457L14.9477 11.3584C14.888 11.3913 14.8317 11.4299 14.7794 11.4736C14.6437 11.5838 14.4984 11.6816 14.3452 11.7657" fill="white"/>
<path fill-rule="evenodd" clip-rule="evenodd" d="M17.119 11.814L17.1198 11.8148L17.1251 11.8094L17.119 11.814Z" fill="#231815"/>
<path d="M12.2083 11.5793L10.9481 12.2423L11.0296 12.3972L12.2898 11.7342L12.2083 11.5793Z" fill="#007431"/>
<path d="M10.0339 10.9967L9.87919 11.0024L9.89595 11.4573L10.0507 11.4516L10.0339 10.9967Z" fill="#007431"/>
<path d="M13.897 12.1576L12.6545 12.4199L12.6864 12.5714L13.929 12.3091L13.897 12.1576Z" fill="#007431"/>
<path d="M15.6176 11.8035H14.6852V11.9516H15.6176V11.8035Z" fill="#007431"/>
<path d="M19.2112 11.7632H18.6095V11.9079H19.2112V11.7632Z" fill="#007431"/>
<path d="M19.5143 12.5612L18.7466 13.0905L18.8364 13.2208L19.6041 12.6914L19.5143 12.5612Z" fill="#007431"/>
<path d="M7.12897 10.9686L7.12094 11.098L7.75344 11.1372L7.76146 11.0079L7.12897 10.9686Z" fill="#007431"/>
<path d="M6.95269 11.2514H6.31898V11.3608H6.95269V11.2514Z" fill="#007431"/>
<path d="M8.12954 12.2613L7.06013 12.9415L7.13376 13.0572L8.20317 12.377L8.12954 12.2613Z" fill="#007431"/>
</svg>
