<svg width="28" height="28" viewBox="0 0 28 28" fill="none" xmlns="http://www.w3.org/2000/svg">
<path d="M23.0541 6.93658H5.00771V8.24694H23.0541V6.93658Z" fill="#57B873"/>
<path d="M23.0541 10.8677H5.00771V12.178H23.0541V10.8677Z" fill="#57B873"/>
<path d="M23.0541 14.8043H5.00771V16.1146H23.0541V14.8043Z" fill="#57B873"/>
<path d="M11.0232 12.1835V8.24689H9.51934V12.1835H11.0232Z" fill="#57B873"/>
<path d="M8.01546 14.8043V10.8677H6.5116V14.8043H8.01546Z" fill="#57B873"/>
<path d="M12.5271 14.8043V10.8677H11.0232V14.8043H12.5271Z" fill="#57B873"/>
<path d="M17.0387 14.8043V10.8677H15.5348V14.8043H17.0387Z" fill="#57B873"/>
<path d="M21.5503 14.8043V10.8677H20.0464V14.8043H21.5503Z" fill="#57B873"/>
<path d="M5.00771 17.4306V25.2983H11.0232V20.0513H17.0387V25.2983H23.0541V17.4306H5.00771Z" fill="#57B873"/>
<path d="M18.537 12.1835V8.24689H17.0332V12.1835H18.537Z" fill="#57B873"/>
<path d="M21.2462 3C16.4643 3.76162 11.592 3.76162 6.81017 3C6.81017 3 3.20531 5.62071 2 4.31035C2 4.31035 3.2053 6.93659 6.81017 5.62071H21.2462C24.8566 6.93659 26.0619 4.31035 26.0619 4.31035C24.8566 5.62071 21.2462 3 21.2462 3Z" fill="#57B873"/>
</svg>
