<svg width="28" height="28" viewBox="0 0 28 28" fill="none" xmlns="http://www.w3.org/2000/svg">
<path d="M13.9971 15.0049C12.8003 14.9717 11.6394 14.5621 10.6594 13.8273C9.67943 13.0926 8.92401 12.0654 8.48766 10.8741C8.05132 9.68282 7.95343 8.38048 8.20625 7.13006C8.45908 5.87964 9.05138 4.73663 9.90905 3.84414C10.7667 2.95165 11.8516 2.34932 13.0281 2.11245C14.2045 1.87558 15.4202 2.01476 16.523 2.51252C17.6257 3.01029 18.5667 3.84454 19.228 4.9109C19.8893 5.97726 20.2416 7.22832 20.2409 8.50759C20.231 9.37204 20.0617 10.2259 19.7427 11.0204C19.4238 11.8149 18.9614 12.5345 18.3821 13.1379C17.8028 13.7414 17.1178 14.2168 16.3664 14.5372C15.615 14.8576 14.8119 15.0165 14.0029 15.0049M4.42676 27C4.31533 26.9911 4.21068 26.9394 4.1322 26.8544C4.05373 26.7694 4.00676 26.6569 4 26.5377C4.06312 23.7483 5.1444 21.0957 7.01288 19.1467C8.88137 17.1977 11.3889 16.1068 14 16.1068C16.6111 16.1068 19.1186 17.1977 20.9871 19.1467C22.8556 21.0957 23.9369 23.7483 24 26.5377C23.9932 26.6569 23.9463 26.7694 23.8678 26.8544C23.7893 26.9394 23.6847 26.9911 23.5732 27" fill="#55B7AE"/>
</svg>
