<svg width="26" height="12" viewBox="0 0 26 12" fill="none" xmlns="http://www.w3.org/2000/svg">
<path opacity="0.35" d="M1.43936 2.99723C1.43936 1.80061 2.40941 0.830566 3.60603 0.830566H20.2727C21.4693 0.830566 22.4394 1.80062 22.4394 2.99723V8.99724C22.4394 10.1939 21.4693 11.1639 20.2727 11.1639H3.60603C2.40941 11.1639 1.43936 10.1938 1.43936 8.99723V2.99723Z" stroke="black"/>
<path opacity="0.4" d="M23.9394 3.99724V7.99724C24.7441 7.65846 25.2674 6.87037 25.2674 5.99724C25.2674 5.1241 24.7441 4.33601 23.9394 3.99724Z" fill="black"/>
<path d="M2.93936 3.43057C2.93936 2.82305 3.43185 2.33057 4.03936 2.33057H19.8394C20.4469 2.33057 20.9394 2.82305 20.9394 3.43057V8.5639C20.9394 9.17141 20.4469 9.6639 19.8394 9.6639H4.03936C3.43185 9.6639 2.93936 9.17141 2.93936 8.5639V3.43057Z" fill="black"/>
</svg>
