<svg width="44" height="44" viewBox="0 0 44 44" fill="none" xmlns="http://www.w3.org/2000/svg">
<path d="M6.2919 3.60764L38.3552 1.56489" stroke="#AE552E" stroke-width="1.61" stroke-miterlimit="10"/>
<path d="M6.26053 5.95678H38.3867" stroke="#AE552E" stroke-width="1.61" stroke-miterlimit="10"/>
<path d="M29.5007 39.1829C29.5007 41.5949 26.2481 43.5512 22.2411 43.5512C18.2342 43.5512 14.9815 41.5949 14.9815 39.1829H29.5007Z" fill="#C25E32"/>
<path d="M41.4823 20.4761C41.4823 31.6483 32.8399 40.7072 22.2411 40.7072C11.6424 40.7072 3 31.6483 3 20.4761H41.4823Z" fill="#C25E32"/>
<path d="M5.53768 20.4761C5.53768 20.4761 5.26269 15.5735 10.1967 15.1178C10.1967 15.1178 11.2024 9.90877 16.0421 11.0951C16.0421 11.0951 21.5418 3.78838 28.1022 11.0951C28.7719 10.9622 29.4616 10.9665 30.1295 11.108C30.7974 11.2494 31.4297 11.525 31.988 11.918C32.5462 12.311 33.0189 12.8133 33.3774 13.3943C33.7358 13.9754 33.9726 14.6232 34.0733 15.2985C35.3589 15.4646 36.5471 16.0715 37.4354 17.0156C38.3237 17.9597 38.857 19.1827 38.9445 20.4761H5.53768Z" fill="#FCDFC5"/>
<path d="M6.86551 25.4808C6.86551 25.4808 7.41548 29.6134 9.76464 31.4126" stroke="#F9DDC3" stroke-width="0.99" stroke-miterlimit="10" stroke-linecap="round"/>
<path d="M12.9702 34.1703C12.9702 34.1703 17.2599 39.1829 25.1324 37.0301" stroke="#F9DDC3" stroke-width="0.99" stroke-miterlimit="10" stroke-linecap="round"/>
<path d="M19.3734 14.3793C19.8377 14.3793 20.2141 14.0029 20.2141 13.5386C20.2141 13.0743 19.8377 12.6979 19.3734 12.6979C18.9091 12.6979 18.5328 13.0743 18.5328 13.5386C18.5328 14.0029 18.9091 14.3793 19.3734 14.3793Z" fill="#C25E32"/>
<path d="M15.5786 19.0147C16.0429 19.0147 16.4193 18.6383 16.4193 18.174C16.4193 17.7097 16.0429 17.3334 15.5786 17.3334C15.1143 17.3334 14.7379 17.7097 14.7379 18.174C14.7379 18.6383 15.1143 19.0147 15.5786 19.0147Z" fill="#C25E32"/>
<path d="M27.3794 16.4927C27.8437 16.4927 28.2201 16.1163 28.2201 15.652C28.2201 15.1877 27.8437 14.8113 27.3794 14.8113C26.9151 14.8113 26.5387 15.1877 26.5387 15.652C26.5387 16.1163 26.9151 16.4927 27.3794 16.4927Z" fill="#C25E32"/>
</svg>
