<svg width="44" height="44" viewBox="0 0 44 44" fill="none" xmlns="http://www.w3.org/2000/svg">
<path d="M38.7459 42.0745H4.8184C4.56413 42.077 4.3122 42.0257 4.07922 41.9238C3.84623 41.822 3.63746 41.6719 3.46666 41.4835C3.29585 41.2951 3.1669 41.0727 3.08827 40.8309C3.00963 40.5891 2.9831 40.3334 3.01043 40.0805L5.18297 21.2419C5.23768 20.802 5.45206 20.3976 5.78538 20.1054C6.11869 19.8132 6.54774 19.6537 6.99096 19.6571H36.5808C37.0245 19.6521 37.4544 19.811 37.788 20.1035C38.1217 20.396 38.3356 20.8013 38.3888 21.2419L40.5316 40.0805C40.5587 40.3315 40.5327 40.5853 40.4554 40.8256C40.3781 41.0658 40.2511 41.2872 40.0827 41.4752C39.9144 41.6632 39.7084 41.8137 39.478 41.917C39.2477 42.0202 38.9983 42.0739 38.7459 42.0745Z" fill="white" stroke="#286395" stroke-width="1.65" stroke-miterlimit="10" stroke-linecap="round"/>
<path d="M33.932 10.4758C33.932 4.68734 28.7238 0 22.2955 0C15.8671 0 10.6515 4.68734 10.6515 10.4758C10.6522 12.2934 11.1682 14.0734 12.1395 15.6096L17.1766 24.3072L21.2166 31.3011C21.3295 31.4746 21.4838 31.6171 21.6657 31.7158C21.8476 31.8145 22.0513 31.8662 22.2583 31.8662C22.4652 31.8662 22.6689 31.8145 22.8508 31.7158C23.0327 31.6171 23.1871 31.4746 23.2999 31.3011L27.3399 24.3072L32.1315 16.0337C33.2902 14.411 33.9191 12.4698 33.932 10.4758Z" fill="white"/>
<path d="M22.2955 20.5127C28.1715 20.5127 32.935 16.2256 32.935 10.9371C32.935 5.64866 28.1715 1.36153 22.2955 1.36153C16.4194 1.36153 11.6559 5.64866 11.6559 10.9371C11.6559 16.2256 16.4194 20.5127 22.2955 20.5127Z" fill="#29679C"/>
<path d="M23.2255 29.9842C23.1241 30.144 22.984 30.2756 22.8182 30.3667C22.6523 30.4579 22.4661 30.5058 22.2769 30.5058C22.0876 30.5058 21.9014 30.4579 21.7356 30.3667C21.5698 30.2756 21.4296 30.144 21.3283 29.9842L17.6081 23.593L13.0026 15.5576H31.6032L26.9531 23.593L23.2255 29.9842Z" fill="#29679C"/>
<path d="M22.2955 17.6929C25.4636 17.6929 28.0319 15.1246 28.0319 11.9565C28.0319 8.78833 25.4636 6.22003 22.2955 6.22003C19.1274 6.22003 16.5591 8.78833 16.5591 11.9565C16.5591 15.1246 19.1274 17.6929 22.2955 17.6929Z" fill="white"/>
<path d="M19.3194 12.7079L21.7747 14.3448L25.0409 10.2601" stroke="#286395" stroke-width="1.65" stroke-miterlimit="10" stroke-linecap="round"/>
<path d="M6.9686 32.6032C6.9686 32.6032 7.24389 32.9901 7.71262 33.5481" stroke="#326291" stroke-width="1.65" stroke-miterlimit="10" stroke-linecap="round"/>
<path d="M9.5206 35.2222C12.2586 37.4096 16.9013 39.3887 21.9309 34.0838C26.9605 28.7789 31.4991 27.7819 34.185 27.6926" stroke="#326291" stroke-width="1.65" stroke-miterlimit="10" stroke-linecap="round" stroke-dasharray="3.29 3.29"/>
<path d="M35.4201 27.7149C35.8267 27.7442 36.23 27.8089 36.6254 27.9083" stroke="#326291" stroke-width="1.65" stroke-miterlimit="10" stroke-linecap="round"/>
</svg>
