<svg width="18" height="11" viewBox="0 0 18 11" fill="none" xmlns="http://www.w3.org/2000/svg">
<path fill-rule="evenodd" clip-rule="evenodd" d="M16.667 0.330566H15.667C15.1147 0.330566 14.667 0.778282 14.667 1.33057V9.99723C14.667 10.5495 15.1147 10.9972 15.667 10.9972H16.667C17.2193 10.9972 17.667 10.5495 17.667 9.99723V1.33057C17.667 0.778282 17.2193 0.330566 16.667 0.330566ZM11.0003 2.6639H12.0003C12.5526 2.6639 13.0003 3.11161 13.0003 3.6639V9.99723C13.0003 10.5495 12.5526 10.9972 12.0003 10.9972H11.0003C10.448 10.9972 10.0003 10.5495 10.0003 9.99723V3.6639C10.0003 3.11161 10.448 2.6639 11.0003 2.6639ZM7.33366 4.99723H6.33366C5.78137 4.99723 5.33366 5.44495 5.33366 5.99723V9.99723C5.33366 10.5495 5.78137 10.9972 6.33366 10.9972H7.33366C7.88594 10.9972 8.33366 10.5495 8.33366 9.99723V5.99723C8.33366 5.44495 7.88594 4.99723 7.33366 4.99723ZM2.66699 6.99723H1.66699C1.11471 6.99723 0.666992 7.44495 0.666992 7.99723V9.99723C0.666992 10.5495 1.11471 10.9972 1.66699 10.9972H2.66699C3.21928 10.9972 3.66699 10.5495 3.66699 9.99723V7.99723C3.66699 7.44495 3.21928 6.99723 2.66699 6.99723Z" fill="black"/>
</svg>
