<svg width="48" height="62" viewBox="0 0 48 62" fill="none" xmlns="http://www.w3.org/2000/svg">
<path d="M15.0326 0H33.3363C35.7636 0 38.0914 0.964229 39.8077 2.68054C41.524 4.39685 42.4882 6.72464 42.4882 9.15187V24.405H5.88073V9.15187C5.88073 6.72464 6.84495 4.39685 8.56125 2.68054C10.2776 0.964229 12.6054 0 15.0326 0Z" fill="#008C59"/>
<path d="M40.4062 28.7903H9.03814C8.19573 28.7903 7.51283 29.4732 7.51283 30.3156V31.635C7.51283 32.4774 8.19573 33.1603 9.03814 33.1603H40.4062C41.2486 33.1603 41.9315 32.4774 41.9315 31.635V30.3156C41.9315 29.4732 41.2486 28.7903 40.4062 28.7903Z" fill="#008C59"/>
<path d="M30.5755 37.1947H12.3176C11.4751 37.1947 10.7922 37.8776 10.7922 38.7201V40.0394C10.7922 40.8818 11.4751 41.5647 12.3176 41.5647H30.5755C31.4179 41.5647 32.1008 40.8818 32.1008 40.0394V38.7201C32.1008 37.8776 31.4179 37.1947 30.5755 37.1947Z" fill="#008C59"/>
<path d="M10.6244 20.935C10.4381 20.9365 10.2548 20.8874 10.0941 20.7929C9.93349 20.6984 9.8015 20.562 9.71225 20.3984C9.62301 20.2348 9.57985 20.05 9.58738 19.8638C9.59491 19.6776 9.65285 19.4969 9.75502 19.341C11.0524 17.3212 12.1677 15.1901 13.0878 12.9728C15.7495 6.70379 19.5628 7.00122 21.0881 13.4685C22.6134 19.9359 22.9718 16.2827 25.5725 8.4884C28.0588 1.022 31.0408 3.99636 34.0304 12.9728C34.8004 15.3155 36.1364 17.4321 37.9199 19.1351C38.0733 19.2765 38.1805 19.4608 38.2275 19.6641C38.2745 19.8674 38.2591 20.0801 38.1833 20.2745C38.1075 20.4688 37.9749 20.6359 37.8027 20.7537C37.6306 20.8715 37.4269 20.9347 37.2183 20.935H10.6244Z" fill="white"/>
<path d="M2.844 53.296V54.112H9.144V53.296H2.844ZM2.844 51.952V52.756H9.144V51.952H2.844ZM3.108 57.46V58.684H8.904V57.46H3.108ZM7.524 60.16L8.028 59.692C9.12 60.076 10.512 60.736 11.256 61.228L10.716 61.768C10.02 61.276 8.628 60.58 7.524 60.16ZM3.528 59.644L4.26 59.932C3.456 60.616 2.184 61.3 1.152 61.732C1.02 61.564 0.743995 61.276 0.563995 61.144C1.608 60.784 2.808 60.22 3.528 59.644ZM5.232 54.916L5.904 54.688H2.064V51.388H9.936V54.688H5.952C6.144 54.928 6.348 55.24 6.468 55.504H11.292V56.176H0.683995V55.504H5.604C5.496 55.3 5.364 55.084 5.232 54.916ZM2.34 56.848H9.708V59.296H6.396V61.144C6.396 61.552 6.3 61.732 5.964 61.828C5.64 61.936 5.1 61.936 4.248 61.936C4.212 61.732 4.104 61.48 3.996 61.288C4.644 61.312 5.22 61.312 5.388 61.3C5.544 61.288 5.592 61.252 5.592 61.12V59.296H2.34V56.848Z" fill="#333333"/>
<path d="M23.112 51.616V52.396H13.992V60.808H23.412V61.576H13.2V51.616H23.112ZM15.096 53.92L15.684 53.452C16.62 54.208 17.652 55.108 18.636 56.008C19.464 55.072 20.208 54.052 20.796 53.008L21.552 53.308C20.88 54.448 20.088 55.54 19.212 56.536C20.292 57.556 21.276 58.552 21.924 59.332L21.264 59.908C20.664 59.14 19.728 58.144 18.672 57.124C17.628 58.204 16.512 59.152 15.372 59.908C15.24 59.752 14.916 59.44 14.724 59.296C15.912 58.576 17.064 57.652 18.108 56.584C17.112 55.648 16.056 54.712 15.096 53.92Z" fill="#333333"/>
<path d="M31.872 55.624H32.712V61.96H31.872V55.624ZM27.372 55.636H28.212V57.22C28.212 58.828 27.936 60.664 25.512 61.96C25.38 61.768 25.068 61.504 24.864 61.372C27.144 60.184 27.372 58.6 27.372 57.208V55.636ZM29.988 50.872L30.636 51.304L30.444 51.604C31.56 53.14 33.684 54.628 35.7 55.252C35.52 55.42 35.268 55.756 35.136 55.984C33.204 55.312 31.248 53.848 30 52.228C28.728 53.884 26.796 55.372 24.876 56.128C24.768 55.9 24.564 55.576 24.384 55.372C26.64 54.604 28.908 52.768 29.988 50.872Z" fill="#333333"/>
<path d="M36.516 60.4C37.584 60.172 39.228 59.812 40.812 59.428L40.896 60.124C39.384 60.496 37.836 60.868 36.672 61.168L36.516 60.4ZM36.72 55.912C36.672 55.744 36.564 55.36 36.456 55.144C36.684 55.096 36.888 54.82 37.164 54.4C37.452 54.004 38.376 52.432 38.916 50.98L39.636 51.328C39.06 52.624 38.328 53.968 37.572 55.012L39.42 54.808C39.696 54.388 39.972 53.956 40.212 53.524L40.86 53.932C40.008 55.288 39.012 56.632 38.016 57.7L40.884 57.16C40.86 57.376 40.872 57.676 40.884 57.844C37.488 58.528 37.068 58.636 36.816 58.792C36.768 58.624 36.648 58.252 36.564 58.048C36.816 58.012 37.116 57.712 37.512 57.268C37.764 57.016 38.316 56.356 38.916 55.516C37.188 55.744 36.9 55.816 36.72 55.912ZM41.496 57.028H46.92V61.876H46.116V61.336H42.252V61.924H41.496V57.028ZM42.252 60.592H46.116V57.76H42.252V60.592ZM41.028 51.532H47.076C47.076 51.532 47.076 51.76 47.064 51.892C46.932 54.544 46.788 55.528 46.488 55.888C46.284 56.092 46.08 56.176 45.768 56.2C45.48 56.224 44.952 56.224 44.424 56.188C44.4 55.972 44.316 55.66 44.184 55.444C44.724 55.492 45.24 55.504 45.432 55.504C45.636 55.504 45.72 55.48 45.828 55.372C46.02 55.156 46.152 54.352 46.272 52.276H43.92C43.644 54.076 43.02 55.648 41.136 56.512C41.04 56.332 40.812 56.056 40.644 55.924C42.348 55.192 42.9 53.8 43.128 52.276H41.028V51.532Z" fill="#333333"/>
</svg>
