<svg width="16" height="12" viewBox="0 0 16 12" fill="none" xmlns="http://www.w3.org/2000/svg">
<path fill-rule="evenodd" clip-rule="evenodd" d="M8.3036 2.60789C10.5195 2.60799 12.6507 3.45943 14.2566 4.98623C14.3775 5.1041 14.5708 5.10261 14.6899 4.98289L15.8459 3.81623C15.9062 3.7555 15.9399 3.67325 15.9394 3.58767C15.9389 3.50209 15.9043 3.42024 15.8433 3.36023C11.6282 -0.67932 4.97836 -0.67932 0.763265 3.36023C0.702206 3.4202 0.667562 3.50202 0.666999 3.5876C0.666436 3.67318 0.7 3.75546 0.760265 3.81623L1.9166 4.98289C2.03563 5.1028 2.22907 5.10428 2.34993 4.98623C3.95608 3.45933 6.08749 2.60789 8.3036 2.60789ZM8.3036 6.40356C9.52109 6.40349 10.6951 6.85602 11.5976 7.67323C11.7197 7.78921 11.9119 7.78669 12.0309 7.66756L13.1856 6.50089C13.2464 6.4397 13.2801 6.35668 13.2793 6.27042C13.2784 6.18415 13.243 6.10184 13.1809 6.04189C10.4327 3.48551 6.1768 3.48551 3.4286 6.04189C3.36652 6.10184 3.3311 6.18419 3.33029 6.27049C3.32947 6.35678 3.36333 6.43979 3.42426 6.50089L4.5786 7.66756C4.69759 7.78669 4.88987 7.78921 5.01193 7.67323C5.9138 6.85656 7.08691 6.40406 8.3036 6.40356ZM10.6166 8.95738C10.6184 9.04389 10.5844 9.12729 10.5226 9.18789L8.52526 11.2036C8.46671 11.2628 8.38689 11.2961 8.3036 11.2961C8.22031 11.2961 8.14048 11.2628 8.08193 11.2036L6.08426 9.18789C6.02255 9.12724 5.98861 9.04381 5.99043 8.95731C5.99226 8.8708 6.02971 8.78888 6.09393 8.73089C7.3695 7.65201 9.23769 7.65201 10.5133 8.73089C10.5774 8.78893 10.6148 8.87087 10.6166 8.95738Z" fill="black"/>
</svg>
